<mxfile host="app.diagrams.net" agent="Mozilla/5.0 (Windows NT 10.0; Win64; x64) AppleWebKit/537.36 (KHTML, like Gecko) Chrome/133.0.0.0 Safari/537.36 Edg/133.0.0.0" version="26.0.16">
  <diagram id="C5RBs43oDa-KdzZeNtuy" name="Page-1">
    <mxGraphModel dx="3417" dy="1378" grid="1" gridSize="10" guides="1" tooltips="1" connect="1" arrows="1" fold="1" page="1" pageScale="1" pageWidth="827" pageHeight="1169" math="0" shadow="0">
      <root>
        <mxCell id="WIyWlLk6GJQsqaUBKTNV-0" />
        <mxCell id="WIyWlLk6GJQsqaUBKTNV-1" parent="WIyWlLk6GJQsqaUBKTNV-0" />
        <mxCell id="XkVE1XgF-gH7ZRC7bXYD-37" value="" style="rounded=1;whiteSpace=wrap;html=1;dashed=1;strokeWidth=2;dashPattern=8 8;" vertex="1" parent="WIyWlLk6GJQsqaUBKTNV-1">
          <mxGeometry x="1305" y="250" width="320" height="370" as="geometry" />
        </mxCell>
        <mxCell id="XkVE1XgF-gH7ZRC7bXYD-36" value="" style="rounded=1;whiteSpace=wrap;html=1;dashed=1;strokeWidth=2;dashPattern=8 8;" vertex="1" parent="WIyWlLk6GJQsqaUBKTNV-1">
          <mxGeometry x="685" y="250" width="320" height="370" as="geometry" />
        </mxCell>
        <mxCell id="XkVE1XgF-gH7ZRC7bXYD-35" value="" style="rounded=1;whiteSpace=wrap;html=1;dashed=1;strokeWidth=2;dashPattern=8 8;" vertex="1" parent="WIyWlLk6GJQsqaUBKTNV-1">
          <mxGeometry x="353" y="250" width="320" height="370" as="geometry" />
        </mxCell>
        <mxCell id="XkVE1XgF-gH7ZRC7bXYD-34" value="" style="rounded=1;whiteSpace=wrap;html=1;dashed=1;strokeWidth=2;dashPattern=8 8;" vertex="1" parent="WIyWlLk6GJQsqaUBKTNV-1">
          <mxGeometry x="20" y="250" width="320" height="370" as="geometry" />
        </mxCell>
        <mxCell id="XkVE1XgF-gH7ZRC7bXYD-13" value="" style="rounded=1;whiteSpace=wrap;html=1;fillColor=#dae8fc;strokeColor=#6c8ebf;dashed=1;strokeWidth=2;container=0;" vertex="1" parent="WIyWlLk6GJQsqaUBKTNV-1">
          <mxGeometry x="1320" y="440" width="290" height="160" as="geometry" />
        </mxCell>
        <mxCell id="XkVE1XgF-gH7ZRC7bXYD-0" value="" style="shape=image;verticalLabelPosition=bottom;labelBackgroundColor=default;verticalAlign=top;aspect=fixed;imageAspect=0;image=data:image/webp,UklGRvAVAABXRUJQVlA4IOQVAAAwsgCdASpYAlgCPkkij0YkIqGQWExAQASEtLdwD7Sl9F/9onU0UnugY1t+mD9U+2XykYn/nv6nte/mv7f+5/xZ/vfAv4/6hHr3/T8IDtHmI+3P1b/jenv9L/wf7L61/X72AP1B/zHr7/1PHN839gb+if1X/b/5P8qvp//tP/V/pvS79Nf+z3Dv5p/Zv+n2G/Rg/cQHfMx9NfEQfTXxEH018RB9NfEQfTXxEH018RB9NfEQfTXxEH018RB9NfEQfTXxEH018RB9NfEQfTXxEH018RB9NfEQfTXxEH018RB9NfEQfTXxEH018RB9NfEQfTXxEH018RB9NfEQfTXxEHz6+QiSMCO9vcmZk0XVQi8l8ge0cYxJxYvRQAwQfTXxEH018RB9NfEUcX002oGWeBtu85yPYXFk9b+9O3cFp4F/j6a+Ig+mviIPpr4IoY+Ek0FUvmBmR9NfEQfTXxEH018RDTo15kMaHKm+9TDMkAlWceZmPpr4iD6a+Ig+fQTcvRtP4zsrHGCEVD6+Ig+mviIPpr22K+ge+7JIoijckiYXxEH018RB9NfEQfTXsKp6h0TGSoMKyXuX41IyczL7L5GVV0Fa8zGh5b6hwT6pilbB7/tcHa/rOymeYpbfR5mY+mviIPpr4iD6YMfZr+6aS3ZgHsgnQ2rXFZs+uP7lHND6E2eZj6a+Ig+mvh+mDUUExpUPhRafU18RB9NfEQfTXxD+bjEXImu7VbL8E1oTJEtCYsLysMiTrUxSgOIwygD/QmzzMfTXxEH018Q+sSXqjEG+fGYACnXYa6nNEv8XCE2eZj6a+Ig+mviIPtrsSjvbIaecp4j61OrgksH4QiofXxEH018RB9NtmQoihFWGr7VedCylOrEdudBXv1bI2vP5u24dHI0HkN7eVjiGyOmviIPpr4iD6a+IhBaNY2u1Ap+9ETwF1WF5LFjBdOdOlqsydWRO8kitOeiouuRhwD+puhCKh9fEQfTXxEH01gggehA4jLoGcBgQwOosfwhzUiMD5NescyV2gH9uIpeQTaeIp2cBc0Fk4Yo+qh2p3yH55mPpr4iD6a+Ig+mwUEbzMOTItWuCiGPB+PrljEgSvUmVAb48fiSVWcpruQOO6+Ig+mviIPpr4iD59BO5cTZqv6vcx/oF7+hNs9ZCK7GgVsMD/4y/fL6a+Ig+mviIPpr4iDfEc7FhHbLiH+/hZasUWgKHJcQVVDKJDGWoHAwNYOQAq+UPyqIPpr4iD6a+Ig+mvifYDfv8oQt4eIb+hDGm6LBLwU2RWCsycLttB5ZbqZarji25Ebjv3l9NfEQfTXxEH018RCDH3/kOm78WFgQSoyL222uHT1PHT4XOV0SulQ9rUqLt7HwlBCZjzMx9NfEQfTXxEH029GiUwcq7RMSdk8hH7QkWsJ0kjRVXMqxUwxQY0bnyNseK5b4w/eGuL6KGUi6H18RB9NfEQfTXxEF2JxBFNliFkRcugCtyK8OMfbV+WEX6hGCeAM/bAkJB2EChNnmY+mviIPpr4iD6OGRuN0yy7DE8vmy5k0gs8zH018RB9NfEQfTMrQt6lhIFxbjx8r2f92/XxEH018RB9NfEQfTV3KLVwxP/QNj3hWEpfy2KGKY8THDnJA/yLRis89dgH4QiofXxEH018RB9NXd0mbZTDLpSwTy8vjLJzzsUd8+EIqH18RB9NfEQfTBxTrDjBe49LQ9ujrnx2bq0WK+0Lf3OGkcSqHULhXPU18RB9NfEQfTXxEHpHrqsVYQORaxDBQ6qNGcRPXZvR4GvhimucXKUMuBj5z3l56KmDpX18RB9NfEQfTXxEH015uwmQouMoTUxs+EIqH18RB9NfEQfTXxEH018RB9NfEQfTXxEH018RB9NfEQfTXxEH018RB9ViWrnDKn1NfEQfTXw/AAA/v3AgCXEYtk6tq8fo7eY66PaSnK1JpuIiIPaVdvMddPnSnoUvjr5d2+LNYphVVVXVjk/WOPZqTRo/CgteP6mZsX7x9A+vjw40/gVYYWKGTautIAbAjdOUG4uFD6dz7UIlfDFJCezR38meLVSQZNqEr80nzxxINMZe22BTwgaF1CVcXsU+7V1rBk7X9jer+dCnmO1fSrjn29iXyyn/BCOm5U9lokXaH3IDczlOsLJ1fmJ5LjxKlr0INzAf3yQeBmeTGOolTbNb7U/q64zz/TyoPU3lkIRyyZm6ZjKuhpDJ5WIA5+89DmA+ZbiJ32bO2elGlkRE0Y7Pg7IJIVcLB4CotvUOusoAYpo+L2khyUHxmnk4vgF+YScMttSohWIgQejtscUu5FrJVIqlNMor9Dlhhu6Re8L6QGsxAQqKaw5OVqWMKyzybOoNyva/gMqUbcxtv5N9SLaazgT1diSpZRATim+mzMa06Fx1K8dkmiqYd/rmkta9k0NOspVwSOVru0NKYD6IXZsu8Jz4VBnCtKrlMRXswqJizXenPg9zqfjSEsA5JzaevVj0Y7xTY4UML7/TYPP5o+7hyAjUErpEPyLuJMbEdkiH9Ew0Ht6jkqQvh1fIsOgczRFHoO6di3x97dARqYE/+1gjjscJsy/VbTAjqu/tCFLX2YzM6GSkdv867vP2qXQKC/rVnFCNtocyAUNK0PjETQbo6NYS2jbFkOOltTzo7Y39VCirOayEXoCrru1Wxp/K4b15f0v6Pvo8VMdJtVNnnBv4D2PV+9hs5LSLM7kygwfh/6xU8JYB6qnEjBduHp5vsg9Pvm+uL+PHLyYvlYhKpa3Q6XDnqp1ZjgfDG5MJNroZuHa2PgiX6xEJabUw1ZSWsnmP8qK1b65WBLMB0kX97TRXkUhJ9FZ4iAjbZPAIdqplFwtB6Mu+3ozG4+Y2ZNdjLkEURhz4Qci9b9lWWZdOMscwQTRCFUm1Y+yBUfgG60oYs7tqaXrIkyUejJpw8Boj2H8oPezMmc34yB0rnRXMIaBc0zOeFUrz4VBCUag+QtPeXp0jvedRikHCrQHt9d2LasujesV98Gphgo924l3CdcbzA1aTFA2XtQuCSB8f1fjo68nvqy4f9wq9J9ENH2LligesPmjH8AisIvaZiYyUmYwnlKLVCFp/qhahxWgJR3Q3Aetm22rgkaaKgOK0K/7fVtHFCyllewBgI59X6XDXvX6iZyJU/24e+YKvBteYv4NCQNvNR0XfsKQbfU9B5BDS171Zi/e3x+hwn/IfK981aezRWR8um7BJVzUFU0rEcoFDPZvB6umMfMbVbaUb40fbbiotbp0U5n2851c8Bdydt+k1Tww0TzRCxabNu4foKnQPdPmNpkZ90yupp3i2sREMabxZYPqM4wwu0WGYcdF2yaKQYWtxV3Y9q2zPFjUtMdsh+xBHdUDAwk056ITeaFyBTzvonWVdhNR5c0f5NGHz+ItqT+YkBsZGLB6vxOcFWfVlXPQjNCB7a1lCBQW2uNj0QvmzGOhVHZMilrX3K5CxbKhXPMRTEZdT8KkpyuvomhwcDAoEb4cmJKw3h45U5fmhKRCGz/apOfh/jmbs6xpppuW+CAwALlEBYXWlwlrLZNpklTd4gx08Q7szjEsMtR0y1a9uyH4FktnD0wucBLJrRJdwM0gNzDxSTduYLqKp7zVFhg9fh4gh2ch5LqsqLZ9Jm3osLM4v6CO8lPEhJ1ym5Os0SCoGpoAtTKaRV6TrzCVTklI5IN5pJhX47oYI1mV9xsyS/BL8uU63w8UCsDmYuVHY/qijEc10MJa2NPT7mIvaxGCwRo/FoRJX5LRYXPYvxpt2t47XdYk+4t6okRetc5xqVoC26ilVUy0oMgVZLjsjMri5bweb9KKBoq0tCUV8doUkT3fse6ABHt+zkvA2ChtjJ4f0o1r4boYOTqEwRzPbm/MEPYPEeXbt1zJqYKBLsUnhVIUt24IaSwBTwPH2gMbgn6+k6l8Ik3aQOlv/IF5TS8Oy8NodP2m+nv/DvB4K4OHwGbJI9qWHD5+88YZjsvpjcVdAJ8nm650XOfcR/kQt0/noUF0GR22UUVxwRib7mvTVc1UfilTHlB3UxhZE4VbytJGhvB3Z7BqzF81JcmQqltya1vih6uKWxn8CX1xnXH510CI8DJQFqQdaVZS3PBwav807TPBjWT//g/tPQu1UsQf4YkIWfF1R6bRfzzonJ/j+egIsK9vZRgnzdGWt0ejXK7vIcZ5S4/oWkS2699aSO3915V8QP1+XNR7RT7KuC+Xaj9z/kL5jooFMykwTR3RPsoX5SuNggjICiTsnPfyXgVCWBegHUY/jcz7+Az+/ZBrf1KNDMgdW/CIKMa57DisXWVpHLKrVkXZPv6OmXanJ1Gv0FI4CMBF40ib5q9b+Xp9nxoe9dBpdiKei3BN35k6g9fsKTTaU/xIe3b0IIvC45bdIEApJrVpA10kEQePC/P26P4O3Hn8Jh9XfsFjNpxeZUhYrYp5sBMNpGm/6+fQHh4ao8vpCgWJEJnWeww53m9qTyX9K6tEA94f1UjKVbksX9rho1dAemXrDWGrjT3TZpGxWQnsM5GL1ZfFpa5hLKf8JOlwOLzcAMYkqDO/PKzSqSZ6O4c2uSAIAmiWidzOovcruhC39ZMSZRv8fDOZtrQruNR1g17ocPopX289w0YwOfWvs1jB/167Gl8SX8jqof4dM158JJiWDup8MsygathvQE/8JTpukb19jOZHykM2EpcXcsr23mJAzDzawt5R3cTvcd73jk5DiAGlclD0u/02KFqpaVnloiLXTE5VWp+GQDpDB7bmLkDYi0lDTOYjVOQTxVPdWFXc0XOx1xjDq3EKQl1UXxEga9xfxe5akgzH6JaBpbSgBIzNUIPVd70agVL1Bj0/0vSwrUh+cOM1ySKNYoBkrTdOOksfH2BLOaHVJc935USi/+Dz8Y52R2Y1f6kfB+l773hZ/mgjM51jRYSh3WiJuwwQg8VoEHW8X/zDP88dcBN790eX82C+JYKvxRaGYdaYU//f41NB+866H8Bpz3StNeYZM8PXy1STQrzw83NOafNtpHn3lm+OGE6WZcaQ+GK88ERNx+AAJUkh86+l/ar8JiEud6R1GAn2jTLHl4n8WxLrjhVr/vcQsw+vx5/EQpLlvSTT+cvdhSop3+ManPTD+yQXxmaMhnpzMWQQ/uSGh0yYkoFTbAMruRzdkqCYJcMy5d6lJY0y3M0IpI03GtVTmfHYHwNJ5qj2GFm2e2IvtcmkhjigTRG9c6YHYwcq0vIskJkokCVtvQCtI7eLyvQhSUWlEoHD2GIVfeAD6XWb++ELXwDFez5YGSm8dfPY8IFprqrwRHod5Ig9A/OCJUabJx/cRZuDdIe5Pqf9JSWGDfLBawi+w9Iq9ofDDsq9ytA67RZ3qUGLeenpYnoMqJ4T6KXQdau63/9kxi3hDaVmtJoJLymIfzS2lXcZ1unkU4+v7C2Tkw2MqNERV1ZyanymYnIEoO+LAPv8EXDl/0Q9S+Ulg3xH/Gf2QOohlVLL4ghD1QIvijUV+aGL8IXuqNbz/ypOcZG9Dk6bfaRaMDnL0ffA5DrlX7Ap0uISo+bG63NSUiDvH7O+XI5H1/5zMebCEIXf4nOEhj+EySRLd07j9OklKu8x5WB/dDzbRTW2AEhpbc2Z5qMiRR1eYFFa2M4tflbBytuvnEGAvMhXw1KCw4Jcp3WceO4oxGftfqjecdtI7pK7NzL3/6SM0rcG9D3ic1RxbbXZ01xZYobsfIj+4Riwz7hxVCsWRbZ5oLTr8xtAplkTSUI3vDYCyuLOvOGL7jN7+Pb21StSRQRxLul/OHLM/cTOqQTmTGTiiBPDGYreb0t3yucQngkr+GC67nTuq7wdcXOH2qwd2hiyq9YJGhIP+J+Jy27qeg7dO3kr+TW8VcRpZ+QC8r8U7abWAtQe/V0Ih3Peddl6M+ipC9Mtt8nD/VJCFw6Iomc1jKHqKAALEm/x5P9oti/v+OUYrIii5J+2m6wAsPILN/BfeY/RVxfT2xC0rgAzYdw6B+AnR5zyX2CUagn+YLqhNtRGNpwC9n32YsVaI+h8cz5Z6xiP/H3xmziM/H+ctlsKk7Yb5SV44Pj9dlJr6UlCePNG4N9jFK5q8YiEVxOjEEid4G3OfirraQ9MlnZtsNQgEGO3H2FBZUCwlGmVf7XT6ifk6fw1uaf9FYimOnCGEtFnXtka8TRVPOI4igSxw5cUMnUGm38NJ7+xzHNWvm+IsakZynqAil71snkeX/qJjuisYmNc/i2kcWXqIj077hmfyrjYv+jr6SY1TmtOmSaBOYXjE/gqeL/cEUK3SU553OYz7g6fHbRWzwcWgz+aIMBQNJTx+WOv8EEktKH7mK1IwgSjKODj+8nTZDkEkD5+XvoML0zlLtezCZzHsKTmvYc8Zf2zG1U3kIxKPhvCGy1nPDUvBe9rB4Vnpy6Lo5Wt1Nxs+SE1EHLBuylJuaKyzkqBtppNkQOdYxYzn0SrCO9OqZ5UXj6TTDxRP5BhnhzlN0TrGuhjsUxmnW3DeVOiJTui27ZkmlUs8CS0nXzh7x/JbF7nYr+nArjr/IpJ/RzggbTkL5jcDhTKfrnuOAkedkcwzcFRbxdE4IGFi+0ZADMkrYWOa1z4Y+GWmw/JHp+4UomOrpxMQYqQOlANmeux1AFDi+SQk9VQWFKWBLAUpFN2VKdLO0gcwvBPic7SSH38Az14N2RYtM1JeOUXz7Q1eHtcv7LHTDmQq1l/F0thXNSdZs5CWmUpWlbnWO3DySXTMtL6/hYreJkCWgKINQQ8lTD6AT7s+tk+SroYPPtRbOm0EZyyisJ8xbDYOpM3pP59O37DxyFrUT2eR486afH9mlYTiZe/00O5eUeuVjBGReuXnavFUyNMvbNEM5jM+OnqOvfAHwm+FYy+VBPExd3WqzR6XfNSGExbqx3B00e03qms8ddhFOlhHu13knPZFn2QcsXUrpwyZsTO4u3hETPnrsYVGL5ULHx9aCk2X805hiLK1Tc9ts4FkzIfrGCYG0YvVl8g90oFiGJxE5eeSJxakGcICHzJ/d8EsGQ/hTF1r4+dw7c3XHSYj1nSpVEFdrWX3nVTA+iZFA1DhFwGwdZQkvnM/tCzj2OX8GB2hwl4HXbcIIqKVzFSjVuYNDMSwZ3CK7y48Grh97xrCABp5mSx8n8B6+ywogj4iEdmQfkf3h/YmhlXVJI/+CKqovmO3Cx2b0vtwWUOiTqbwOZewOsTGPVJ7tAd3Jmg+GzIUDYfPdjrm2ReLDTpnUwcLsjrhQ1sqCLMdClHOZ6GfEgpqnBFoF+DFmZZPyiOFXmr0dtCdx1vIvfokqVKpRxJpDID+TikH54HQsfg9DkDbS7dTLAcN/0J70XjfdO/AZi2zoUhvUuDrVuM8QBj2hB98ZquInj5gRqjA3mXHhQCfiAsrp5YnR5DxauW3WhD/EXUpv+y6iRqScCo65xN9ftgqWgVK07LeHdKYutfJPLUuoA1A6ZigUx0zMzMUCmOmZmZWB4e2AFfAAAAAAA=;" vertex="1" parent="WIyWlLk6GJQsqaUBKTNV-1">
          <mxGeometry x="770" y="270" width="150" height="150" as="geometry" />
        </mxCell>
        <mxCell id="XkVE1XgF-gH7ZRC7bXYD-17" value="" style="shape=image;verticalLabelPosition=bottom;labelBackgroundColor=default;verticalAlign=top;aspect=fixed;imageAspect=0;image=data:image/jpeg,/9j/4AAQSkZJRgABAQAAAQABAAD/4QBKRXhpZgAASUkqAAgAAAABAGmHBAABAAAAGgAAAAAAAAABAIaSBwAVAAAALAAAAAAAAAAAAAAAAAAAAFZlcnNpb24gMS4wLjAA/9sAQwAFAwQEBAMFBAQEBQUFBgcMCAcHBwcPCwsJDBEPEhIRDxERExYcFxMUGhURERghGBodHR8fHxMXIiQiHiQcHh8e/9sAQwEFBQUHBgcOCAgOHhQRFB4eHh4eHh4eHh4eHh4eHh4eHh4eHh4eHh4eHh4eHh4eHh4eHh4eHh4eHh4eHh4eHh4e/8AAEQgAyADIAwEiAAIRAQMRAf/EAB8AAAEFAQEBAQEBAAAAAAAAAAABAgMEBQYHCAkKC//EALUQAAIBAwMCBAMFBQQEAAABfQECAwAEEQUSITFBBhNRYQcicRQygZGhCCNCscEVUtHwJDNicoIJChYXGBkaJSYnKCkqNDU2Nzg5OkNERUZHSElKU1RVVldYWVpjZGVmZ2hpanN0dXZ3eHl6g4SFhoeIiYqSk5SVlpeYmZqio6Slpqeoqaqys7S1tre4ubrCw8TFxsfIycrS09TV1tfY2drh4uPk5ebn6Onq8fLz9PX29/j5+v/EAB8BAAMBAQEBAQEBAQEAAAAAAAABAgMEBQYHCAkKC//EALURAAIBAgQEAwQHBQQEAAECdwABAgMRBAUhMQYSQVEHYXETIjKBCBRCkaGxwQkjM1LwFWJy0QoWJDThJfEXGBkaJicoKSo1Njc4OTpDREVGR0hJSlNUVVZXWFlaY2RlZmdoaWpzdHV2d3h5eoKDhIWGh4iJipKTlJWWl5iZmqKjpKWmp6ipqrKztLW2t7i5usLDxMXGx8jJytLT1NXW19jZ2uLj5OXm5+jp6vLz9PX29/j5+v/aAAwDAQACEQMRAD8A+y6KKKACiiigAooooAKKKKACiiigDivjVreoeH/h5f6npVx9nukaJUk2g7d0iqeDx0JrxjT/ABR4hvfDjXtxrV+05DHcJio49hgV6n+0jn/hVOogdTLB/wCjkrw3SHZfBzjaeFIrGpJp6H6Hwpg6NbBuU4Jvm7GPN418UIHxr2oEnubhjj6c1nXHxH8aWy/uPEupR7emJc/zrMu43AJxWBqe4ZyDU87Pp8dgsPGNvZr7j7D/AGY/E+s+Kvhy1/rl817dRX0sAlZQGKjaQDgDP3q9Trw39i1s/Cu9Hpq83/oEde5VvHVH5Bj4qOJmkuoUUUUzkCiiigAooooAKKKKACiiigAooooAKKKKACiiigAooooAKKKKAPOf2iv+SZXg9ZoP/Rq14lpqf8UpL9DXuH7QMUk/w9nhijeRmuIeFGf4wa8o0zSL4+FGUWk+4qcL5Zyf0rOUW2fpfCtenSy73nb3/wDI8wvF4PWuc1VPlbg13V7ompL96xuRn1iP+Fc9qekXeGzazDHXKGolBn2ePdOrC8ZI97/Yqcf8K51WPuusSfrFFXvFeGfsfWN5p/hPW4ru0uLcSaiJYzLEyB1MSDK5HI46ivc61jsfiGaK2LmvMKKKKo4AooooAKKKKACiiigAooooAKKKKACiiigAooooAKKKKACiiigBsiLIpV1DA9QaiFpbBcCFAPTFT0HAoKUmtmZ8+k6VJ/rbO3b/AHkBrPuPDPheUHztEsJAeu63U/0rXmdckZHHX2qrK6hS24Adc5oNFXqr7T+8WO4tbC3jt7aBY4Y1CIi8BQOAAPSjTtTF3fyW2zG1N4P44NZ12QwDKwIxwQah8NnHiCQetu3/AKEtBk3fc6miiigQUUUUAFFFFABRRRQAUUUUAFFFFABRRRQAUUUUAFFFFABR3oo70Acv8WHaP4d6y6MVYQjBBxzuWuWvLy5e38RXniC5ls/Elrp901lahysMEIRsSQH/AJaE4BZ/vA8YUdfR9Wjnm06aK3WJpWGAJACDzz14zjpnjOK5jUrDxTeXyLKti9kIsZdVMiscZOcdSMggDGDUsaOIvdA0gTfDyYWYD35CXmHYfaQbVpP3gz8/zAHnPNZGpaLHJ4g8RaHZalY2FjZanZ3Nvp99I32SdmtyXiI3AhSfmwOMjODXoT6X4pglWSOa2nIKmNZFUrCQqrgcZC43/d5yR2qvfaHrFyji9/s68WXyxMklrHh8KMsTjkhtwHtQMzvhvqcN7puo2UWlWWnNp94YZRYTebayOVDFo2wPXBGOCMV1Ph9seJFH96Bx+oNY/hG21mz0ye21e3soAkv+jraoqIEI6bV44OfqMVp6MceJrX/aVx/46T/SmI7KiiimIKKKKACiiigAooooAKKKKACiiigAooooAKKKKACiiigAo70Ug6mgBaRulZ+qal9guYFeJmikB3MP4eVAP0+aqCeJYZWHkwyOC2wKAMk5GDnOMYOadjaFCc1dI1pRzVObvXOS+OrMMzNZTrCsbszMyghlcLsxnOSWH5iptH8UWGtXJtrRJ94hEzb1xtVgCpP1zx/un0qOZGs8HWiuZrQuXP3TWfYNt8Q2DeshH5qav3J+U81mQHGt6ef+m6j+lM5Tu6KKKYgooooAKKKKACiiigAooooAKKKKACiiigAooooAKKKKACgd6KBQBn6pLMkkaxwwupBLFyBt5HqRmskT35kIt7KzRWGUJZSAfwPft6+1bt9Z213t+0Jux05x9RVdNG05CGEP3emWPFLUtSaOfuA6z29tcaTYGN3YHaobYv8AET2HQE+tYlub6zvJbi1trMtcAbz5oJYKAFCjPCjJ4AHLdup6290fT2aVysgMjFm2yEZJJz/M/nXO3nh/RljZZEkPzE58wg43bscds1JtGVSSsmS2F9c3IkW8FsjgjasUgY/jz17/AI00Ns1Wxb0uI/8A0IVkx2uiQ6tFPbxKLhSduG4GRg8VfvH2XFvJ/dmQ/wDjwpp3M6lKVN+8j0WiiiqMgooooAKKKKACiiigAooooAKKKKACiiigAooooAKKKKACgdKKB0oAyNY1Bba5jjJwTViO5Dxgg5rh/iW0x1eFYTIHVOCr4A+tXdE+3G0VXkLYGCc0me39Qj9WhUvuaevakLaJmNeT+MPFbqzqkjDsMetdl4vsb+6hCpKwxzweteJeLtK1GJiXlk3Lndz1P51CV3qe7k2CoPWT1L3hnXrifxTaLvdg8gGM17DqZxArZ5BB/WvnnwB5sPjGxV5GP7zGPevoXVf+PI/SnazOLienGFSKiuh6ZRTYzmNT6gU6rPlAooooAKKKKACiiigAooooAKKKKACiiigAooooAKKKKACgdBQelIv3R9KAPLfijMU8RQKspXKjI/GpbbWntbNW3bm3ov1ywH9ay/i45XxVbhJkBZMbSKraZcrKi+ZMg44BHcd6Ukfe0MMp4Ck2uh0s+rG6uDbvIYAWxnjIwoOPxzXDeMYTPM0f2qNkXf8AMQPm4U/mMkVv3t1AsTb3hYEbjkdSPWuR8W6za/Y2iKWrBQSoKj5c1luxYPDyhUTgjz3wU7L44sSZQ+ZyNuB6npX0Lqn/AB5N/un+VfPfguaM+OrPiPd53OB1NfQ2pD/Qm/3f6Vo9zh4p/iQ9D0W1ObaI+qD+VSVBpxzp9ufWJf5Cp6o+RCiiigAooooAKKKKACiiigAooooAKKKKACiiigAooooARvumgfd/ClPSgdKAPCfjv9qXxFEYslSnQda86fUdRizgyAnGPmOOK+hfHfhNtbvUuo2AKrtORXD6n8OrzJ2hW9KrmXU/SsmzjCQwcKU2rpHkOo65qbR7HmkPAwd3XnnNc3qN3ezFizSFTk9SeK9c1D4daiX4i9h9Kgi+GV8w+YBanmienLM8HFXUkebfDkP/AMJvpxZSf3ozmvp7UBm1I9v6V5x4c+HdxpniG2vpMFI2zXpd+v7gj2qW7s+J4kxVPEVYum7nc6Sc6VaH1gT/ANBFWap6Ed2i2J/6d0/9BFXKo+YCiiigAooooAKKKKACiiigAooooAKKKKACiiigAooooARvumlFI/3D9KUUAULq8eKaRA1uoQA/OSDjjnp71mT6rIN6O9iXB+UCQ9PfitG9vJIZ5UEluFRA210bP5is251HckpjksAwC4yrdeOvHTk4qWUnYyr7VZIlAafTS5UEkuQOf6dK0lEbxI42sGAOR0NZUuqJ56RD+zAAdgwG46dOP0q5CdS80CaO1SLPOwktjt7UFuTHSIvoKz75f3TCtSUcVnXq/I1BN7nV+Hf+QFY/9cE/lV+s/wAOf8gGy/64r/KtCqRAUUUUAFFFFABRRRQAUUUUAFFFFABRRRQAUUUUAFFFFADZP9W30pwpJPuN9KWgDNv7uWKaVEnRAqggGFjz169Oaz2v5iiOZrbYwOAIXA4GfyrRvZ51uikU+wDjabdmGeO4PvVC7v50Uo06hg2D/or9Mf8A66kpGLc6tKu5/MssDPSGTJIH09au6e17Inm3L27RuuU8tWB/HPtVbUdSuo/MKXMZKEBgbV+D0OD6d6ggvr+5dbeK4jEuPmZ7VwpPXI59KBms44qheA7Wq5brOsAFzIkkvOWRdo68cVBdj5DTEdD4b/5AVn/1yFaFUPDoxoloP+mYq/TRIUUUUAFFFFABRRRQAUUUUAFFFFABRRRQAUUUUAFFFFACP9w/SlpH+6fpS0AY9v4m0K4uI4IdRidpZPKjbB2O/I2q2NpPB6Gr9xc24KIZk3OxVRnqR1FZ9l4Z0ayuEltbXyhHIZEjVjsViSSQPqScdBU7aPZq8cio2YnLpluAT1paj0IvPhniEsUquhOAwPFUr69s7VQbi4jjDcgsakn0m0NotqFdYVbcqq+MGqM+hWT26QN5rIgAAMnYZx/PP15oAE1GwmVmiu4WC9cNTZyrxb0OVYZB9qrf8I3pKkk22888s5OMkk49Mkk/U1blVUhCKMBRgD2FAzodBGNHtR/0zFXap6KMaVbD/pmKuUyQooooAKKKKACiiigAooooAKKKKACiiigAooooAKKKKAAjIooooAKa4ytFFAFWWFj2P5VXa3f+6fyoopiuRtaOeiH8qik02dxgLjPrRRQx3Ni0iEFtHCDnYoGfWpaKKQBRRRQAUUUUAFFFFABRRRQB/9k=;" vertex="1" parent="WIyWlLk6GJQsqaUBKTNV-1">
          <mxGeometry x="437" y="270" width="150" height="150" as="geometry" />
        </mxCell>
        <mxCell id="XkVE1XgF-gH7ZRC7bXYD-18" value="" style="shape=image;verticalLabelPosition=bottom;labelBackgroundColor=default;verticalAlign=top;aspect=fixed;imageAspect=0;image=data:image/jpeg,/9j/4AAQSkZJRgABAQAAAQABAAD/2wCEAAUFBQkGCQkJCQwTDg4MDg4ZEg4SEBcOEBAXEBcXEBQXFBQaFxMTFxoUFxgjGBwZHxoYIRgjGCMiIiQnKCMXJzUBCQkFCQkJDAkJEyEXDhoiHAwYKSIoGiIkIiIZLCIoISIUIyIaHx8aGhwYHCIaJCQjDhkkIRcvGRoXIiEnHxckKv/CABEIAMgBLAMBIgACEQEDEQH/xAA0AAABBAMBAQAAAAAAAAAAAAAGAwQFBwACCAEJAQADAQEBAAAAAAAAAAAAAAAAAgMBBAX/2gAMAwEAAhADEAAAAHCmK9PPivjHNklItIJnVb3RHeXO0auTkjbydnJij5WHIgllKKAZqvSaXi3m4linga5t4GZmBmu/gJaL+A28W1BHVXU1PNtQ10UwEFdtzPU3O4NVpWdRoAvKm86Ds16xXY2Uat9DSv4I5k9fVxbDKdK0siYJurnAfD9GsgfDPQA/0r00FsI0ggcmEAjtJBHRnq5TMbYt4CSbjU1tqtoGjuxm83gUzh4rLC2j5dQMmQKElL1uEypZVEgcfCxvffOVd6ver7lw29DmvCV5cpvD6GrcWyPRvZanz3PZZ21J84FqlxecxWDz1tpIFq3N6B95Js51vP2jKgM7S8pMjxLIR57r/TpanwCw6pbovOT0qVGeIQWi8nXojGtpUmNtI3V8TzWgxsnEtQwD5uCaV0S0M99Pn0qq26kfCmRj5z0tDDoGsLmw3JoclZeZ7oqG5fF9Irra2KrnWAtCvrO6ebzn3onnbJ3gVhJSkQ6sTEPdYC+qfuVlJckhji6p0D0YcfTBwxNGTqNMZqFtiHiOWm0DTIJpJ5GKI1lcU0Mk3bGVpm4alrhATQJf6bVpZlb2ryYbk0IT6vLt1U7d/i+ka09eNIo+WSF2N087PmTq7mTJ2eTQ0xOVNDj0WZbNsCCnazUZPo/wvWas3TJKNmTppjxcGQjzkI0dw/RDwakI3og7NyXrclylp1tsy8oCfbyjHFUz2Bt1bwdanTu8859L5ivrpVNxiDvj6bJqspZo8kT2Iq0wnnvruOxaXj+iWJLiMM72Y6Ant1ubpRsU+hfF9JBohH5Ryxax2u7iUYh8cQvkLbn2i1IzphevU/zwJ1XvNXgXE3v3fgHA+gCnz70D6Fb/ADywPoF78/PdPoMr89PA+gqHA+B9HHHzVwz6W7/ND0PpjnzP23PpdnzRdB9J5D5f9WVWKgJ2C8ztHIx7GvrCLcw1FSiZBhVIxq40vFho9asujhu+1Uca+g4xvsC2IegtiWAtiWBv5smG+abBt5rgbbaagpmuwev4+xtwru/b204wfKofw/TFIwpY6B0MejVFCkiuPtOBQ2RdYBlPP6IJzrYt3OncLnXD6NXUT1dy3VCKUQMFvR79dtTnfx5ZIQ6KgsIGNXgqCX3X06AU/CnNVha36WowJH0aOezzRw5jpfcvT1VC0kYuXZeF6kU3kEAF4qLFOmfrR6xpNuiu9bPZadgpOEHY3ZPRPrFSUccPcAcodhcj100L2hUt+efJDZ5Tcw6leTp5ysUBtukCgMtUN560YcBVh9KFFOXnVUa1wdgJl7HglEJOCrL1Cwloq02rEar7xPSIRY0VoglGFI6+DjOU8ddS9nPSfwHMa90lBs7rjqggsNY2E0XGqgVOoJ0ahtCJhYS9a5myxjW+BcsZV2Js4f1HjbegjXGK0nZlQk1YWOKjkZud+w75peVMTTjPG9FDxVvmQ44SRTkA9duWzdfMXW1aWVVVEuesoKVtIdYF+wCKZoqASoa+gBrHT0ANve62FA7XYvuUTpdFf6Bm9g64V/lg5oAzJFgD0eYGel2TQ6TXlW6WZ5Hem0zNxsxzGE8zNM1zAZ1fmVRhDZnTHMzNzMzAzMwM3zAVVzMFFswF2GYDXbMD3fMD3bMDbfMwv27sy8v/xAAwEAABAwIFAwMDBAMBAQAAAAABAAIDBBEFEhMUIRAiMRUjMiAzQTA0QlEkQEMGYf/aAAgBAQABCAL9JjMxAT4mU/BZUPA7XS3beYsa74luXz/syfhD5OasvcOui6wcoaVj28tjijVngZiZnuUDDclxcw+DKwxGweDx/subm4QbZNZzxpnwnRkAOYJ5nmzaiFpPJgPiMe2zKo5AGGxqZBwZpx/0lrDbLHQ+Xf7UYH8s0SfINNqhJynIDIAVtmHhrJGwu7ZcsmZ7NcRODnuhmq2hyOAuRwB6gwaSIlenPXp8i2Ei2Mq2Uq2ci2ki20i28i0HrScshWUq36LGl5sJqV8XlsjmjiGlbkzObWW+JrC/h0tObAROppB5o4CDmdiFTDEUa5zuG3VPjILG3bit16omYpmAIFeVvihWlbwrdlNqCVqFapWstdbloW7jW7jW5iW4iWpCrwq0JWnCVWQMDLtUVKAwSITyuNgw1PhSV2XtBqpVTSmR1nVcj4bZdd83at0Kc5nVGJSTXvImFXTfKoWebkMVQG5TYNGdR5eL9iqeL2pmgBqik0u5hrpQLpn/AKCYyaajxKRy3j1idbLbijqZpWBzm8+X3tcGun1Y2CAOf527lO6SPMn18rItROrpHv0ej4ZzdPqTYNZcvsFK6Noax8b4wVPM4SacUldpBzZJqxz+0dJOjU0clUf8lIVL9tR8vcmpqrFF4Ym+F/BQfulH5TPKxbgFUH2Y0zwnfApvNTEmFMKrndsieLxRhUPuTud0pWObHmbDFm5kFef4GQTuIMhZH8pqx8iP0PTlGU08lU/GZHlSfbVPy56YmeQq5MFgxMHAVuxUn7oqIcqMchYyO1UY9mJRjhSfAqL9yExM8rEHcPUp9ppWEN+Z6VGcOOanc5zhkqXQX4kmc4WRCIRCPVyeozZf2oTa/Sb7ZVL5kUflR+QsQX4YmeAv4Kh/dFReVGOVjnxVMPahUY7QpR2KnH+S5MTPKxF3D1UG1O1YY20XQyAMySSTOfx0PQhOCPUlSJrlfym/npL9oqk8yqLyovIWIojiNM8BfwVB+7coPkoxysd+KhHtQqMdqlHYqEXqJU0JqxI8OVW72omqlbljZ1PQ9CinI9HFPCp6d87srDg9TythOFtakJ0U5YWmlpJmal2xSNKaXAqujc7w4HLEmzi1kyYPbZYaP8qRMu1MnIWOuuwEM+3CmzABOeHtWGC89QnPyoVNlXu4Kec7omoC3HU9D0KKeiiinLAB7z/0qqjZK5y9GanYK8G7G4TN+fS3KopBHGczYG5Whbdi2zFHQQxEubtIyvT4VJhFPJw4YHSg5lso16fGiirolEolEopyKcisBkaySTMJ2LVatRq1WrVatVq1WrVatVi12ha7FqxlZ41uIk6Wnd5EjFqNWo1arVqtWq1arVqtWqxB1/BTiiUSi5FyL0XovRenO6RvyG43j1vHrePW8ct49bx63rlvXLeuW8ct65bxy3jlu3rePC3jlvHLduW7et29bp63T1HNLJ8TVPBssMrZIoWguTyiUXIuRci5FyJ+qysrKysrKysrKysuOnHTj6bqOUsvlw+g/wCj0U5OVk5FW6WVlZE9HtDcv6dullZWVutlZWWG0omeS7oU5FqITmp7f6y/3ZZEXtHxdf8APSRl3EJzY22A0GKeljDCVSMZqSFw05E2GMqtY1vAZFCGMzCCFSUzLEiliZLK1rtpTHgenwqeBsahijc27hSwnxsGHw5ljZbFo+WyapqVsYusEHe/qU5FqLUWp7UI06RkSN5Pl48ZLpsStd4CjbnmWmixVbfacqcczqnZ5TG8rEh3K3EaY3gIt7SqMe81MHIWVYmzlpUA7FAFEFWNyyOVk0Kdl4lgX3CiLdSEVZHn4zFsXMjnvmWUM8HoyO6cMqphmmYsOGaeNBqLVWD23Km/7Knb5TRysUHKt2xqMcK12lUvE8aDbFWWKt7QVTfGRQJnlYg20i/pRngIjMwhYLxK4KTz9LiGi5krC7iHTDe5x6tamNsOZjwVhwvKsGjvNGU1qyqrHYVRC4mUEZTYiFio5QF2xJkJsEYyBzDxURrJ3WWi5Yoz2lSeZQqdhJ4ETgsUHgpvLQofCiHlUByVKk/HU8J+IfiLQMhzS/8AwOFuobeyjZZFVHhYWOZipXuYI7buVbyZGtmPlsrm+BXzjwMTqApKmSXlzaqRtreqzr1eoWs7MHJmKzMNx67OpsXlmblcyoLCSocYfELD116qsRNRZNkso8UDAAvWFDMHTtenctHSormQ8IskqeZQwDgWTk5FBqY3oSqlywse1UuVSeR9AF0GBZAiP1RECjCh2OCjOaPpHTti8AdXJysgEOhVSsLjz00oEzJb8lpVuuZahV03u4WmsiyFaZWVW+oSWWogAfOGPzwi30lELKrdSp1E/KFuFrLWWstZaoWoFnCjGobNGHyr0yRelyL02UKSglCbCQ459Fi0GLbsW3YtsxbZi2zFT6cJuqasa7hvU9D9TlKnCzf0s5Wo5az1uJFupU6VzvNysxWcrOVqOWq5arlrOWDHOJLr/8QAKxEAAgECBAQFBQEAAAAAAAAAAQIAAxEEEhQhBRATMSAiMkFRBiMwMzQV/9oACAECAQEIAPAaqiM9zMvuRUI7hwwuPyNUAhqky+8J+euLkKwrN3onLTAbqLOoJnEziZhLiX8Br/GcnY29z7XjYq2wZ3bvRS94nDswvG4eVZVg4C53B4VUD5IeG1xtDmU2OZoEeZHE88s8pk7gwm3d8YoNl6pbvAsoizERDtG9dKII/wDQ3Kt+xoIBtGO0vB2Mp9o+ORRYPiXfuHi1IDFG8VbMYveH9tOU+0f+luVY/cMEHaNyB2MUeUeBWitFj4hlew/0nEHF3DqxH1NUEPHiahcji493cOxaCawQ4xZqFmoWLiARyyzJBSi0TEpWlTDFmuNG80bzRtNI00tSaV50Kk0rTStNO00zREYbS0tAkVIIPHaW8AgFuQaK28Dk7AD56oEzQVmJMRzZp1DeFzkE1LXtK9d1K2o412cA1cS6sbYfGM75Wg78rwbm0Wjb1D4F5nu0YxUO5inZoAY5+2ITvMSfRKLWYTEGzmYZ7VhyHfkuHJ3YVAuyBpmjPKYu0t55kWZRMqzIJ0UjUEbvo6Q7Nh0fdhg6QNxL8i5O5imF+VNfNC5B26zTrmagzUzUGagQVri51SzUpNSkFdIlUP6eQ504p2/DYTKJlERRbb//xAApEQACAgIBBAAGAgMAAAAAAAAAAQIRAxIEEBMhMRQgIjJBUTAzBSNh/9oACAEDAQEIACiuig2KFdHjQ4tOn81/JXRY3QoJdKO3+XF44mVbStaM0ZozRmrNWUV1WH9qCR/wXl0R40pCxxiZX6HkoWSzY7iXk7iI4JTVx+Fn+e06scKLiWia6x40mLBGJsNmV+EMiMfoZxf62T+1kftRP0yh+0SfkhxnIhx4xNRwGSZOVpDZHoxnGX+pkn9MhL6UT+0sa8kvYiKEiSJIkapoeJCwo7I8I8Ri5XbhoPmxaaFk8JEvqVLU0HiYhM3HlRLMiWUU1XneBvA3ibwN4G8DaBtA2ifQXAbj+CxzHNjbGv46GN9ZIpG361bKOzBRRLHHaB2IV5WGLys+CxtWYOJCW15eFjjB64OHjnGLlyv8fDHj2hY34+R5P0/LKNaRH2h5o3QmnPGNpWiCvKzxVHHX9hkpqji/ZE5MdsMhjfR5fwqbflooUSTpF+Ddm8juyO7JeT4jILkTjdfF5CPLyQVRfPzNU2UMpLoyuk/RRoaGhoamhqaM0ZozRkote38svQ1/BZZbLZN2z//EADYQAAIBAQQIBAUDBAMAAAAAAAABAhEQIVGRAyAwMUFSYaESInGBQGKSsdEyweETQlOiUHKC/9oACAEBAAk/AtlxI+J47kRu6Ih6F3r8XxaMEN9b7VcysXiT82JPxL5Rv0K+GmZHuK9NXfqZvw+K4nERG7NjNJeeYn4XfUn4pEnXDiXPp+r34HkXd+rMPit3Qg16Mbj92efGpo0k/wDyTvwI+Jrj+DfycTh/ar378CSgnw45k1kTWRJDRSxdxESJFkWReQnkLaZjI3kYoipHlxFXvZJ1wR5V03v1dk4R+U0ujNJo8ycMxw+o8P1iX1EP9iBBkSLIsTyPsPsMkNDRQ8IoivsTn8oqdEjuKryJFH7CosR1eG4l4nyp3e7Lui1kIwERsXBF3cayIo8J4R+GldxpJcSc8ycu34J/q6I0r+mP4NL/AKokrlyfyKPp4RLer1dZpLiTouOJeLxSXEg8zKP7kv6nyrh7nljyrX6W8upyq3B/bU628tuBzROtl7fDgRjkRVCF+MeHrwJeLorlmXLBXbHpby6nLG3CX21MLeW3A4fi2tK3DdFvfAjXsi5YK5bPpZgcupyRtwl9tTlt5dTocXY/6n2RcsOG16WYHLqckbcJfbU5Fby29LMNsryPcgQNGyDvjgQeRB5CeRyK3llYrOSNuFiMTglt+XZvuToT7sm/qKy9WLckIRGje8Qu5HuyF/8A2dn32rp5SQxjQ0MkhokrGMaJIaJLMksySzJLMksySzJLMksySz29MimRTIpkUyKZFMimRTIpkUyKZFMimRTIpkUyKZFMimRTIpkJP2KZGjx40/b/AITj8Bh8N/btL321Ohoo5GjjkQjkRqorcaKJo0RSFe0REbiuf8Fc/wCCo3vHIbs0lPav7k/fw/yTT9mcuyvZlqYo/wAitwOluByq35tThLXw2G/A8q762J/k1MVbgcqtxepitTC3DWdD6vwXvGy7V4KR8+pzIVmByK3n+AXiePAdX22PCH3HS4m8zSSzNI8xmkZpGOo9xLsPsb0ymRTISOJFEFmRpZDuQ7l19t8sB3cuz+UwXxOfHac37C7C2a2ToOvXbyGMYx2UN7IkSBFkGRzELWjUhSnxD7knmSeZOX1MnL6mNu1jGMYzeqWf/8QAKBAAAgEBBwMFAQEAAAAAAAAAAAERIRAxQVFhcZGBofAgscHR8eEw/9oACAEBAAE/IbEiLIsgggwAleVVZyjsJ0EMGQSEJU1Metz0tPf7HNCR/tBH+ckkVIUjvKJixiZFBaoKbzRffQixNmMBlJ0MTvFtE5Y2HMdDuqkdXGiUkLr4GlNU0QPZjWRXK1mEnJXjeCjqQtctv84IIIII9UCIEpLTtUXNzLvNlZebr6GtyacoIP8ACsq6zkUG28lCSFpooUp3brIlSLY1PBBN9wKvLVwsJtOE3XoNI17o1dLyA56Efr92SSpb4+wZ2b0wR/hHpgi1WQNuUb5CtyJWM0u7prB3FL+wO1tCJ8TK/wBSKiabFXuaiA9OAjGM7jOWhLFLPc65tUgQW4pjrRweG/Jfe8HK3ytbE8jHp8mkDV/aPE0aoZX5Q0AaPuGu4ZBg+CRHpdqRXbwKokrJcQZ0ZRTqQ1yNxdtQkdtqQNcUwKcJXLp6nf3Ii9ETCY6uR7339cBM1p96+wMuDya5k20lRSJud5WKuIL22I+ZDMfSL8QVKvlMdx7RNj5Q/wAgUPoEiI0ayuo13ITf5YsoSlN/Emx7TyEfghtWSRdY3zj2IrpFkY6jdChZqiXRl7eLYerRolQTko2z7FEehn8E05VYLm90Co4c8nu7IhjQ2P0apCxG/FaUr2E39CXoueCHHoWVQXQSekKkMDR3UHC5fJeTpW76OGVbPOpyP1yko7Scifg3VmSBe3lYyeJYdCnMjb9Co6eNWCklSVmf2KGowPC5P+ifJs16qQmO2q6nUlbFFyUQ83sMeSRZ1SmyNUUb/qNhDfU2x2RW5RrqIqbpdzmvgy7RQiN9yFoKWB3fURU9pXXFk2phlZMFHlgVGXlL0zyehXGwtUU8FBaUEe4SfLeLoWk4JiR4by4svSG+bCsiPcmv/wBgu4NYzLk3nEFoPRrtFX1FG0nwJSGy5A+amr+pe4FbU9Kdcx/TaCiQC0vK5DyZfzky+c/wYNheY+DsFcEfILIShs6LkR7j3ZTinXpuOPQRmg3zhijYpNaiVy6C6kV5TnW4hKhTROXfP1KsWGSLbDv6zx2QkJyhJ3/wVdApJD6EQYnER2OxxaSlEjpZHtbIr+pJpP8AAtlEry830Id5llaJKpEQa3sWYC5aIOw1bijJIhiOBtOuRofhcKqFvswvh0PYFrbiV6ERC8Y12OwxKClF7WRk0R2Btb6kQ8M5H3G+pfwQLxNjsOw7CiikklhXShOQ42xjDZMTOi4DciAr3Gwl3fCs3yiPbVMwpS6IskGOqXwTefcTpgapsJxh9iR4VBcQ+pEyy+Zg1JKqUN2akEf1VIKyJWOw7DGHoNZcYYmaUvWkOMieEk3GhkvzGfkHPMkxSRpMO47oqYNw06onsmM2ak7x3zuY3f2E1T0vkU0aGP8AQ0nybtg4/TDHGHsMNVEkicajGDk0/IsryfpH6xp+T9w/WP2BvR7NR7i/YjIOUL+wiJtAkr9yIouMh+YPzB+IPxB+YPxB+IPwApZaVo/8Yo1EjJsJHrvlpPoiZ8yHgQ8CelVXfEp5lPMp5kH/ABB4lPEp5lPIp4FNHhGnDhGrUApdIyMpbRbduas9zdL/AAF9XFhI7Yn/AD/+ixKJEqxQlEolWKmVWBTS6CzsUpEG7EiwxCrByGHmJLKQcyrejeBOpKJ9EWQQUkWJ2kWpkxyFI0zkVLEEsqNjCpSo+tkN1fwXa0SKCntPsRq2IwNBoeyKIBJK4OpjjCXCHJ5D3VGY1BsoKN2R3uhUHS1zH1HcT6sRY11KKTzOdFI3pBPAJT1VrcLs42orj6cC+E1ZaQ0ll5UCkaa8kiEtJE/knXn7X6KEloOm+FhmPmijXMpK21huxXTSuA0kHULkWrPeKLmnuVc2EQOG99goiO0V0+2UXT2M5YoaIQSP4Si9KrKYzQ6m8xMXdRVDAbn/AASGrGrJLDv5iDdEKYnsj2xxCShDXwRnwP0oSkLBEY8xU38z4VscMVvyVZUFMd7EXox8weU5kTvZ6qEnQ+YSrslyYNIdz6CTaOsg+6S91sY8hqR2SRYsbw0WNRwJjZLiq2O84Q63C90Qpb7DLBFVzfYdgVfxYOzkh8KlfAZXET2Jt1hqhZ5s4FiLGReMjgE+GUEwHEwV9Jj7GRG7rxIIwUvVi3tPaxl83RCn7YL9nTJYOg5ubijirzG8qvMh7uyELQumAS5t7oFgyGGl8sh++Jf2RXDKEvOpvrefOmwh5LY6aQk/wNCEqTeFvePVYwjqSnRCq4IED7s/aFdLDJkGIxEMuoQxvjIkUv7jSNfexzHa/I8oMn5FqRCKSi1kvsFaUOmT3ZS8vb9UiyyJsgj0x6lSFYMeRk0XRkiC7NcWqxCIdlLWsWmqX7G7vYIPKFb24JZPgl5diSdg51Fli6j09xusGaRSmUZm1jjfPpoJSBqxjR1Q2IRoJWq1oQ36MQVl0eWT1YuuobnLI/sj+yBgVkDVXY8SQhKk7hKJGA24jWcCQhcQm+AWTlR0oPIzyM0HyaL5N7k3uRaw78tNzaJbqBQMmLTsQQJWMuMSWQmr/wAU4uNVyP3AkffEnwO5H5Hc73jk1u5rPk1XJrjUGotyx0Zws//EACcQAQACAQMDBAMBAQEAAAAAAAEAESExQVFhcZEQgaHwscHR4fEg/9oACAEBAAE/EAr1CAhCeoQhzgFhQvEsVAyKJ6LtgPVwEvK1zEHHoKt3XDpXKkpwNjB7HTsPeXzrh/To9yVKlelXAlSoHqyo+ikqVE9KlegQI01sQwguaeoV7wxlsZclSW7YsJfsuuQbxppluB6DUyNAt1rFapUVjtGsRSU+iovoyEfVfXX7tg5xHN23B7JQFKQM9Rt4LNZb+y2GX8NQ3OBlz2jXmL6mW3MqshbLpkyj0qVK9KZUCVH0GGH0aietQgQl/bVoRpFUTqMYZKMK2sBgADgJhy4VqqAAOAMETiDWy2tawzV9tCLqXbG5QEdkgwgcuACHL55tO4Xq4Cpch+Sdd3l9mwCt4LjF7YClngNO11qw3p4PCBbvK/W6KlyLIvsyjleLXvazOZ1/Z/5PQqUyvSoxPQkRiRI+oHoIJtBQ1xYd+IRFNkC86EVo8Gm+yVcNB4jDvG7TrZBV3qVCZy9R7wHoRpuaVrjGykdVE5Ka9JmwhE3vRNg75licgKoLZprbFH3MIjtXfXCpT2Gks8hcs6on+yQix9zrKAymgZunlf5Hm8n8g9nKX8k2R7NEd306xH+x/YH+EQ/pmoeRNWkJ6/e6R1HmRDZ8MeRMTExGCVAgGX8CUeDl5Qu0JE1bN0OtKyRxq6CorXA6pBZU5y/SP470LzcYRZbgMhVLZ3oRam1Nf2RTVkEzei9KlkbKS+5iS4wdR3Hm6TpxKEJQ1fovVJq0kEF+VFSdC7/DNk/YwHFPtF+vaTpIB7LMVq6Ver3zEZCjVR+46r6nWI19q379C/62mKfucTl+x0n+BvTrrH9KndvvKbRTtvBDShTzN5TA1mNKK93dCJD4lFDiwpGlG5RQa+EBp5VUYskHi18izdaMu7rKY61K2o4cuKqlxzB4KtUo2WUHdmqQqY13f4ELsfREH7i9N6zV5aYnwWYIDoavURYU1Rxjq+cnAPv7RBpi+hwQbNBWAYzQra0Y+JfIrgswX5XZV5r3iOOgVbjhRO2iRIVGyz5JF5KLnsXpflij2D+mABfdnt9VCIPOnHDonBa3IHwVitTkPTrKTkloOrjElxtDoPmEih9KwLQYnSaAL2hQE03h75FCXeGcTQRu0FqxUD22Vp0P3H7gCVd8jYIx2sB1LHMMxkV7ZtmuMxdWAAzNcQ0xF9DKXeGjqkqv3GIjs+BK+8Eu6vXeVmOYrnMwixjoMuewgve4Fd2zo0gLGco+YgdH+v2he+ddoWr7p0unX5gW3i3iFIP/AAlvbg1HSCI1CE1tm0/yZLn8MH3Py5j3I67L74jLG4+If5iPpH30mrfa1HVzVj0v7sFc3CNXyoQHKrSW7EhhSbaTIgy/ONOJraMcAxp1Q0131KQ9h1w6uruTyxC4jBiX6LEvEHvvxctZzh72Z7hao13mOyOtzO1PyQLQxcRqqa5d0N8S3spkyL/xJeHeJ70u+34y/wDLeZZLvMN3jAfeMxErikYL5M/AHyzLehKjnRi2j2Y0jySG4maFWl4zL5rcq9000mawtAA9jX3uZIuWWd5hF6LiGmILpehLae1t6iOvu9sz0ulwKqofY3Ln2VllQ62bs8yhiPqS/riVx1gLu6kEt3lEDmsatX8qymiUHvGLTq6I8L2udoA+EwDeL7/4TkZPohETBttBs++sJNNEahwEJBt6dizglcVXDFlZlivMx2udIC3FLRFmLPwTFdTEzGqrumneM9H94HyWkqIl17pRCq1/z9GWsxAdo+EQH3J85KB1mRJ2dmNatRRV8n5lFMR0Zf1jYvP/AJSvi5jvY/lKf/BQX6M5aPo0TGVpfmY/pIUAEEAwdsblmTY2AhQ2egxjBUCWIyiV2VKrqO7J9tocCH20jAe7G84iiqzfYQrJH1gOIsmphxEOfUnB26zH5mhoPyJnUSKvGuIoGQcXUr0/3BLGX4EbJA4W7qE/T+mcdh7uK22ngqVOJGRRRzBmE+oOeirrC4r0BiVCAynmZqNBRsZ6Q+MWoq0OKiSpTpEQXszziHM7r3+swJQXkWW9sgKguFrKAOKIIyZ0R2WECYELK3ma/v25lxb+/WH0kbr9AwLSmrOnvIPr5c6fmmFZ9ItoOT0QdJbL4IYlkdbzalUNllWjT/Dgn882fhw/xs/52A/zz/mYf52H+Bi4N5cq8kMXrT6cw1C9/wCk2ARvAE1lSAit0AVwGm8C1+h1h9g/MPqH5n3D9z6h+59w/c+4fuH2D8ynbmBI+JSJzMr6dzNeDK96JmFiKwTrFrKfqGloyVpHG3l0zreCdTwTqxdaLrRdXwTq+CdXwTr+CdWDrwdeAbRixi+VOv6Dg/oAJbQDFkARWAosqAKNIAQXJCz8mwuOMYolFylmsRCKzUj3wT3jNrziLehM/UpK2MykpKysrKyspKykTkz3Tu+J9Knd8S/ol9fidVivPiB7sryxAsWGLeccQFbLt9xu9B8xbixF615llzOOI65gfeWOWhgwdgl7xroWnOX0JXTgTYQ1msMV5jfsAZWOt8ynPpfWGZ3Snmd0tFAX8y8t6FoNqd8qCdp0ohKrBLnmPEAACgKAwEqX3cv2mKpYiPxEyDhzKm3fDKxwL05XvLt8pnbtPfwVAitllMUPL+ypd3mgUstySoAriUjRhtxXGJWn10GEcBC1oCFsAaivxZED36VifHbpVLuSW2nZuVB7DPS/cpoxu2o5KdsaA2DTPcJ/6je/H+4xWc6UPRsMCNJpMAKzS3CMv2/iD5sg7mmzIyzxNClEsbgUPNrAugW8kyaIYldLUTpUvvKpUF4Je0egcvGZiB6y+MmgGp11mJqUO5sZuLh3DbbvpUu1ToMCVIn4CCYmq/aZU5ldbDyJfHmuzf1Hh3/n0PcCZPpeZBX2hODeXD1x10c1VYmNbqI82H45BdAyjOUhh5DwRK6aiBch2j6Jk8kMqcvOY8YUg4S8CR9o8sJwCnrZHiUFRTrFwGHf+zUuUyoKM1abnuy814mj1doYsXw5Zkbr0PTmWDrqhAc+xiK4Hvy8GMg/vTCQ9B0OZK/k77QbU1CX0EqkR4f1TOwR9KBD3peQQAcQOypi2oZXN0+aTdtSAp1GEtzO2jUA8rJ2s99IS1MA40g4pqtjrwktPcT2YaXofJ6Z+krhliy1EX0+JoiVtzlDxDU0yalq3Wms6QLq6sbY1nLMEZWrZrJtvLoC7lTSp/zrIrQo/khUGorMenEYrcvlQQ2yU44gBXNa5HHWGsMY/W+sX/2+eIbPUeWpn6cQDrK4U3AVTb7VMub9x3jNVDKAFjctrbP7muNn5s/McUpdEGmttEjBEWCYoKx2mauvySx7XySVLtxAWBqrQe8Tafqzy4Dl7WnswczAstYE42e0vA6mW15YYoOdaG3iLKq8FxWjMMA93XzMKEUqc23ghcdbaXmlJWtw0B9v6zRJCBk2WkptnGlLGiwsASgpF2sFW1Ay4EBQ0E08wCEWHkwyii1YomiP7z2d6OG4iNVGFuKqHSmv5E4jdyMGqxCw29Ubm7+q79qgTjiR+oZTDqIHApI62MxV+3wN/qJM0trO/wAQruMeg6PeFzDYKIgMxUS9wVgOfmC7yEPiVVFQy4ZV/J1w+asZYuMewj6VL9LRMOy4yhEIg6L3g3QiiUwJUCLIif8AlLzacwV29mM06/HRuGbkXeH+MYM+QBvmAEgRjHEyWKrG3o0Ki4zNEvZcY7r++gQo/JUGDNQRpdJr/siEhDdVAN51JexM+8Q8k6GGmWOGH4Q23zE634jbxyDhQukuah7EH8Soyjn4mOZRzNBmEdUFDTqsV1juB8Zg5AFAggNLplTJctzMBWYmZMvhT0BUSJEy7itHnklPiLTPvtLs38oBId/qG6PJNz8cH/nA+8F77AAVCzXV5IdrTgiwSuLRM31w2HqTEN2Xf7RTd5wf+2f9rFdCfWlY18yFEDVUOeIisAtAX0NDdiVVjREXLFcdw16TXKPRZj8UZ5cuD/zX/h3dh5GkgH3PmAafX6zQvp9ZohQGimF7c5WKt3lP+sgH9E/70C/tP+tDkynfBZ+ahZKN5//EAB0RAAICAwEBAQAAAAAAAAAAAAABAkAhMDEQUGH/2gAIAQIBCT8As5dJ+SJdJk/0zb6O0uESPcCpsY/gP1jGMejlDC1oREQtSEIQhW//xAAbEQEBAQACAwAAAAAAAAAAAAABAEAQUDAxUf/aAAgBAwEJPwDT6yEcHBHcEZmZ1kRERER5vmJmZmZ6r//Z;" vertex="1" parent="WIyWlLk6GJQsqaUBKTNV-1">
          <mxGeometry x="67.5" y="270" width="225" height="150" as="geometry" />
        </mxCell>
        <mxCell id="XkVE1XgF-gH7ZRC7bXYD-19" value="" style="shape=image;verticalLabelPosition=bottom;labelBackgroundColor=default;verticalAlign=top;aspect=fixed;imageAspect=0;image=data:image/png,iVBORw0KGgoAAAANSUhEUgAAAIgAAACICAYAAAA8uqNSAAAAAXNSR0IArs4c6QAAAARnQU1BAACxjwv8YQUAAAAJcEhZcwAAFxEAABcRAcom8z8AACwxSURBVHhe7Z3ndxtXlu3fX/Pm45v1XveEntBrwpqZ7vbY3ZYlS1a0LSs4KEsUcybFLOacI5hzTmLOlEQxU6QoRqRCBWSA3O/cIsiWNZL7wyz3Eji116pCsQigQN4fztmn6t5b/wuKFP2EFEAU/aQUQBT9pBRAFP2kFEAU/aSOLSB7e3twOByw2WzyI/t5f3//aDn42fVkRe/VsQXE6XTCYrHAbDbLkNjfAYqiP61jnWIYJFarVYbEarbAajLDbDLCJIm08JBEAwycBqLIwWa30PMJJHp0OKwElxE8r4cgcDCa6PlmCWbax57noOc59+x0hL2DA72tY8TesfcgklHC4uIiJscnMD4yivGxEUyMj2ByYgQvnk9ifvYpFhae48XcM8zNP6PHp5iZncb8wgye0e+fv5iSH6emxzA5NYqnzyYw/XQcL+h1ek5NUDnk5UgMjsPlGOhYexAmll5ev36N5cVlLMzNY35ujoCgZX4WmxtrFCG0sNqMWHm5gOfPpzA/PyM3vk6/C8nEEwQaLC8t0P5Zet0sZmdn5GV+/gXW19cwPDwArVYtH+tICiAfvux2OzY2NqDT6WRA5uYWqGHn8eLFHD3O4sXMM2rglwSIjtKJSYZmbo7gePEcT59OyY0uUhrS63UuuBawtLAkPy4uLGJxfpH2L0GlKoVaveM6qksKIB++WOQYGxvDysoKgbJJj6/wcmUdL1fpcXUNy8vLUGt2YeA5mEwSwbIqgzE6Ooxnz6YIDC0MBj14A4/V1Q35tWv0+OrVJl6+XMfS4ipWX75CVbWKANlyHfX46VhHkNbWVgJhiaKBDkvLr8hXrJCfmMXk5FM8edKP9Y3XMFH0cJCHGBjoh6+vD8LDwxAdHQWO0xNkFko1PJpau9DVM4C+wTGMTVKEeb6AheV1bO9qUV5Rgq2tdddRj0nYeEPHOoLU19fTt52lERGLy2tkPpcwPvEMgyNjaGnrwCJFF54qGuZXOju70Nvbi+3tbdTV1cnpSRJF7Go5qGpaUNvchbaeIfQOTWLs6Txmlyl98UZUVJZhY3PNdVQFELcRK20ZIK9evQJPgMyvrOHZ3DJGJ2fQPzKB1s5uzJBh3djeJDMqYXRkhCLBlgzK1tY2pZVV2YesrW+gsqGdAOlG25NRPBl9jrFni5hZeg1OMKK+rhKbCiDuJwZIbW2tbFANPI+5lVVMzy9jmADpG55AW0cPZslwbhIgVpsJFRVlMhwrFGmqqmrlakej2car9deorm9BXUs3WntH0UuAjExTBFlap8gkobWxGltUDcn6ER/vOUfiZjq2gLCzqI2NjfTt3gRnMGDWBciIC5CWti7MUSVipOjBVFhcBP+AIKSmZsHHN5A8ywpsdis0eg61je2ob+1Fy48AeQVBNKKtsQabr1fl91AAcSMxQJqbm2VPwRm4HwHyZHAc7Z29WKZ9Ok4rm9WqmlqUllWiuqYBBYWlmJx6Cg2VyGodhwYyqQ1tvWjuGUHPyLMjQEQCpL25FhtULstSAHEfMUDa2tpkQPR6/QEgc0syID39o1SRjGLmxRzyCvIQHhkBD08fKlkbKOp0Ij09D17eAQh/FIXu3n5094+gurED7f3j6B5+ilHmQRZW5RTT096I9bWVg4MqgLiPTCaTHEFYNaLVaX8ESHffCPoGRmRAEpMTERwWjlt3H0JVUY/ahk6kphfg5p2H8KRUU9/Ujv7hSbmKae4eRtfQNEafLsiA8LyIzpY6rL1cPDioAoj7yGg0yh5ka3PrRxFkeOI5OnuHMDg0Lp9VfZwQR4A8wg+3PFBYUov6xidITMnHrTve8PYLQXVdE/qHJlBe14aGjgGKIpMYnpojQNZkQGorirE4P3NwUAWQD1ysgVyNZDKb0NjSjMXVFWzpNJhbfUUeZAVjzxcwOPUc489n0f7kCeIogkQnJsHTPwQpWQXIKihHeHQSHlD08A+LRFZRCZW2k6hr70FDzyA6R6cx/HweTxdeQq3Vo7m+miLI0sFBD49Py74CyAcm1jCsTVyAMA+SlZ2Nl2tr2N1VY21pA/MzLzE3s4LxsWfooDK3XFWFwtxCpCWmIjH6MT75zUf4u1/8DW5dv4FAv0DERsciISkVRaUVlK460NU7iL6xSYw9e4HnBNrO+i4qC0uwODsnH1NGwnmwwa7vuj6KW+tYRRDXl1eW02RDY1o+1luGsNswhPXGEbxqGsV8RTcmcuowlFSKgehctPrEo/KHIGSdu42rf/F38hL8b2fw+PPryL7miaIHYagMTUZLfB56cioxqGrCeFU7Jkua8bpzHKqEDMyPT8vHZD1EZEpoeYNVt9axA4R9geWGMTsh9j7DSlghVj0yoM9uh7VmDPqcNqgTqrEbXgyNfy52H2Rg+2Yidm8kYfPbx3h9PRbLV6Mwdy0SL76Pxsz9BDz1TsVMcDZWEiuwU9yOlbRqDNyJRs+tSDxJKoR5W4e9/X1YD499XOggHa8UQ4srwgNWJ4Sep1BHqCD4FMJa0AM0PYUtrxPG+BpYw8rg8MmH7XY6LNeTYL2SAP58BLizjyBcjoXwfSKEe+mQ/PIhhpTAHFcNZ14H0DiB/YpBGMJLoGVL7SD2tEY4CRDb4bHZZzkmkBw7D8LaRY4iNie4/mfYilJBQyBIhd3Yb5qCuaATQnw1TGGlsPjkwXInHeZvkyBdjpPh4GmRvoqF9H0SxPsZMPvmwRZSChsBYstpBepH4VT1wRBaCC6sBGLDKPb0JvYJ5BSjAPKh6g1A5EYiQPi+Z9iOVEHrnQ9jQS99+6dgye8iQGohhZfB5Ev772ZA/C4Z/OV46L+IAH8mAtKlOBivJ0O6kwkTvdYSTM+NrYExtw17jWOwl/dDG1oEXWgJDA3DcHIHgBylNyb5Q7i/jl2KOfriWpww9TyD9pEKvGc+rLkESN00HLndMMbVwhyqogiSD9OdDAjfJcHw9eMDQE5HwHQhDuaryTDdoghCrzUHq2CMrYWQ2wEHpRhb+SB2Ke1oQkuhbyRADAeAMLk+xhsb7q1jZVJZgxx9iwkQiUzqLnkQTgakiwChxqVGNsdWwRZcAptnLqS7aRCuJ4D7Mhrqc+HQnAkDfyEK0pV4SLdSIXlmwxRUDGNMJYzZrdirG4WtrB+79HpNIEWQuiE4RfNBwHBB8aNI4uY6voCQSWVVDANE70VRII8BMg5LbjtFg0pYqdEtnjkQ7hAE1xIgXIyG7otw6E+HQTh/AIjxZhpMHtmwBhTBHFUBc2YL9qkSshdTigkogc6fAKkZVABxG/0pQOon6LEDQlwVjEFFMHnlwHAnBSIBYroQDelUOKSTYZAIECMBYr6RBuv9bNj8CmGJIEAyCJCqUTiK+sH5FsNAC1c9AIcCiJvoPYBwBIgtpxuonYAlpxMipRgLpQjTg0xIt9PAX6NocTEWxhOhMH4WCu58JPRXH8N4i0rgBzkwESCm6EqIBIijagT2gn7wviVUPpdAX9UPh6QA4h56s3HIg7DzIDsuQKw5PbDRt5+jRubIT4gBheApvQjkM/Q3k2H45jH4kyFkUsPBfZcI9f007N5JhpoizK5fLtSx5dDktMBSNwZz4RPovCm9eB9EEKdkUQBxC70DkF2qYjReeVCTmTQ9ewX1k2nsNA9DX9kLY1kPlkOy0fDpDYx/6gHxq1isnfRH9a8voubTH7Dhn0WlbSdMVcMQyZyaup/DNrQMoaiPPEgZeL8yBRC30nsAUVO1oqsbwf6SBsaxJWhbRyFUD0Io6MCr0FxUf34LDb+5hq0vI7B4NhCJv/wEKf9xAYshWdDkt0NDEOw0DEHX9xzWyTUINaPY9CuGzqdIAcSt9C5AmEn1zIOZ/IdjVQe+8yk2YgiakCJoPLJgIKPacdkHHr/8J7T95/dY/CoUIX/7O2T8x0VsP6Q08zAdm4H5WI0qxZaqF7YVLawjK9gMKqQoUgR9DQFCJlU+Jq3Yo3wlV97h/vofAEg59A/zIFaPwfhSDaHrGQyx1TCFqGD2yIP1QS56v/RBwD98jCen7mPhYjCi/vEESj+6AvFeBmz3c2ALKIUQWQW+6Als87sQ+2exHpgLDUH2PkDkDXmne+t/CCC5MiDml1qInc8gRFXDFqSC814ecDcHw5f8EPk3n2DsxAMsXwpFzK/+gOLfXobBI4MqnWxYg0phoNfwhb1wLqhh7J87AISiiAKIO4ka5F0pRkcpRqwdh3ldB30XVTYxFdCFlEBHZS5PKabnkjcC/+Kf8OR3NzH7ZQhC/uoj5H10GZseqeRfMvA6KA8vI0uhKemBdVkDy9Aitqmy0fnlK4C4lahB3gSEJ0DUkeXQURUj1k9AXN2FbngOhpphCKp+iEW9WCKTWnbmBuo+u4mlKxEYPOeF8F9/ivSPvyafkQM+t0OGQN9Axrb7BaTn69DVD0Prmw/exwWI4LoWQwdmx1YA+VBFDfIuQNiZVKlhEsLKNgwj8xDqxyARIMbiXiyH5aHsi5vou+iDgl/8HsX/fA5JvzmPTAJkI5AAyWkHVzsIvoFe0zED6/QraCv6YPAtgOjrSjEKIG4iapB3AcIu1kmUYiyvOeg7p7EVWUb+oQjqu2lyimn94j4GPvfA6oUQ9J28j9hffozi332DLa90qD3SCZQ8vA4rhiG/B/bxV+BUT2DwL4Tg7zKpCiDuIVZaHrYL6zAkdE/Ll/s15EEMDRMwrmuha5+UqxghpBQm7wLYPHLRT2kl8Ref4Pkpbyx+GYrYX32K0o+vQeuVBf5hNoTAQhgelcNIKck2uw1j7yx0FD0kb9d5EOEND0LLm+dE3F3HBhDWFocNI2/b9yB2TUEXWopdT6piGqdgfaWD2DYNI5WspqAySFTdOKjM7TnviYC//h2GT9zH8rkgPPq736OATCrvkQWRjKwxoAgCgWYo7IR1VQ3D6AJ2vQth8aCoUtlPJtVywAL7APKHILEd8k731rEHRCsDkiObVMuqBlLLFKSIKhiDDwCxESBtX3rB769/i4kTHlg+44+IX1GK+c1lSDdT4bidCXtAKcyPKiAWdMG2vAN+YA6bPgUQvBRA3EYyFK4Nefu/ADIJI337uZYJaKMqaH8JtJ7ZEL1y0fyND4J/9VtMf3IPq2eDEPfrkyj+/TUY7qbDdDeDytlcuRe8Nr8N5oUtiH0EiHc+OHaxrqofewogH75kKFwb8rYMyDR0YWRIqTENzVMQ1zVQ076N5FpsxJVjK7QIm/45aLrogay/P4mlT70xd9oPAX/5b0j7z6+w4ZeJ3aB8bCVWYi21CtrqflhfbEBqJ/NLKUbzkCAhQJQI4gaSoXBtyNsuQPQEiJoA4VufwrymgWFsEZbeOVhap+W+HYtBWVD9+2VMnXgI0zfxeHGCDOv/+xgln1yjCqgE1qphmJvHYep8CtvAAuxjy+AKuyl6UAXDLtaxFENVjMyCAsiHKxkK14a8/UYE0VO1Yi0ahKnnBfSqPghprE9IFTj/Amw/SMfLq1HQXHgkdzfc/iIE25ejsHk9Ftv3UrDtnYmdiBJsUhTRZDbBzHq1lwyA86IymQHCOgwZjAfHVgD5cHXUHrSStwkQqXMaXGgZDH5FsOf0wd5AVU1uOzTRFTBQmSs8ZH1S08H/kAzhqxhwBIjudCjMF2MomjyG4WYypPuZco8yY1QlrCktcFaMYL9wkAApJG9SAp4iiIOT5PMvf/wQrsfDbTfWsQHkbbHzIMa2SUghKuz6FoDP7YazdkL2D6a2GehDWI+wPEg3UiFcjoHhUiR0JwLB/SEQwplw8F8TMD8kgn+QQYAUwBRcCktiI5yqYdgK+qCl6MF6lInlbwFCOoxkCiAfmt5oEAaI2DkFAzWsJkwFE0UPY9MkdppHYe6awUZYEaUfqnDupMiDo15fjcHqhTDov0+mFBMNq38xBO9caIILsBtbDvXjKvDF3bBRmWxtmMQrAmyHniNWkAfhTX+EgqQA8iHqrQbZczjBU5mrCS6BmNoCW/8SrINL2OmaxG5tP5YjirDXMI0V7zRwaU3YzmzGbGAODIW92Iwpx2IwlbYZzdAVdsDSMoadojZwBJdpZAFGAkxf0I1XgUWQKgdlQNjp9cNbjCiAfIh6GxCbA0LvU3kEnDa+FmaqXEx9c+AGZrFd04ettDrYGidk4znrlw5tyRPsZLVgK70Ju9mtGLz3GKtJtRAqnmC7gMxp11NomkYgDc1D1zgKW+UoXvkXHkUQNi73sBeZAsiHqLcBcezB0DlJEYRSBZlLa/8KbL3zUDeOQKQGlnLasRxZCCG/HdooFTYDC/DaPw+bQUVY88qEIb4eutgq7MZXYjOlCtsZ9TDVjcDRv4C9jhfQxdSQt6EIUjFwFEEOj68A8qHqTUDIg0hU5vIhZdgOoG+6alBOKbsFHdihyGCIrMSroFwseaVg64d47H4djVenArF9JgQ758Oh/TYe6huJ2KEydyOsADusw1BqPWw1I7CqhuRT7Qa/UgUQdxUzqVIbVS3BKugCimGiygO1TyHmd8Oc0Q5HTB2E6EoChX5PEYO7myqPxRWux8N2j0pbn1wYgvIhRpPBTWqAJbUZAhs4VTMKh2oEXCCVzz4HVYwCiDuJGkVuGwLE1D4FgSKIwbcQtmICpG4K5pwO2LI7YE6shyWhFtbHNRCCKVX45cuj/fU3U6D5IQF672wYYyrARZXCltoIR14H+Oxm2KvIlJYOQMf6glAUEcv7ZECUMtddRI3CGugQEJZiOALEygBpfApjZisEAkMXXkxRIB/b95KgJiB0V+Owcy4MO2dCof0qGhpKMfLUVJ5kYIPzoYkshj69Hg5WtZT0Q0MGVacA4oZ6CxAhRCUDYi7sAciD2PO6YWRRg50o88qWUwt/9bE8u5Dh8zBwnwVDPBsB/qsYGL5LhOF+Oji/XPCPqFxOqYeznDxHcT/UfgXQUsRRAHE3vQUIH1wqpxgZEDb0IaONUkc1rOzkmWfOge+4HCdP+SAQINLn4TCdjYJ4KYb8SCKkewfTUBlDS2Qvslc+CAdFoz8CcuBBFEDcRW8C0jZJaaQEHKUCGZDaCVgZIFFVsASVwPKQACHPwV+hCHIhEvrPQ8GdCgX/RQQM7NoMRRDhThrM3rkwh5bCQoDsUzXkLKIUQ4DoCBBBRRHEYFRMqtvoPYBYfgRIJUwEiJFdrLuZDPFqPAwXoqAnOAwnQyAQINzXBymGzQBg9M5xRZB67JUNwFHYB40vAeKlAOJ+eh8gbBrMmglYMtsgESBSIJWoD7MPrtiy2YQoxfCfhUL4NBjGMxFyihEpxfC3KQURIEJoMaSkOgKkH46CJ1D75EHrlecCRClzP3gdtQet5G07Ow9CgLBhk8yDlPQC9ZMwZbVBjK6CkQBh848Jt1LkjkLGcwTISUovJ8ikUgQRv4yFRIAIt9MoguTBTNWQJYFSTBl5kKIBiiBF0HkXKibVXcTaQm4YWsnbBIh4BEgRTKWszJ0iQNohkUllE9OZmAdxAWJyAWJwASK5ABEJEDOlEnuQCrb4RgJkCPbiQfIgLDL98USZAsgHrp8ChCdArKX9BMg0LFkd8pynZvIgZs9cGKmKMV9JgOl8NISTYRA+C4FEKcZEgJivJdLv02BxAWJNUABxW/0pQOwlB4CYszsgxlYfmE4vAoSlkKuUSi7Egvv8ETgGyRkqeS/FQbqWJM+jaiKvwSbTNSc1wqEiQEoIEH8FELfS24CwLodC6wS44ANALEW92KufgJDTBk1cBbQhheC8ssDdToH6Shy2L0Zh40woNk4GY+fsI2iozNVcS4COylyOTKoYVgaOqhhr5RCs5EPUBAjvU6IA4i76U4DYa8aw3z0HSfUE+pwWiOlNENk87h7pMNJz9ORHtJROdr9LgvAgB/xDii6BpZAiysmzVIKPr4Ehtw22pkl6r3HskPHlPJlJVQBxC70PENblkJW5QuUAbE9mIbKpG1Q9MBEoxrQGbHiRx0huwm5oKYRHlfKVXw0tXBibpqoU2lgqibNaYS7owlZeMxxP5mBvmsaOTyEMnkUKIO6io/aglbzNhj0QIHrWyKxXetUw7O3PIZb2QpPVDD6lnsrdcnkOMp13NjZuJELNerffy4Lhbia4e5nQeuZAE1gALlIFYyKll5IncLRMw1k7CZ1vsTz0UgHETXTUHrSSt8mksl7t2pAS7AbRN11FEaSOPEhuF0WFKmiDi6D2zITmXiq2rsdi86tIvP48EFungrB7Ngw7X0dh9/sEbN9JgsaTvEpIMfSJdTCr+gmUAaj9imAgD6KcSXUTHbUHreTtQ0CCS6Cmxdr5HM6BJQi1wzCW9MKY2QxNZCkMYZROQouoKsnDBsHAJtDdupeGV3fiYUuux+vgXOjjq6FLbcRubgvs9D62xim8pjJZTd5GAcRNdNQetJK33wSE0oyzfxH746sQm8ZgqRqErbgHBvIgYkw59I+KoQ3KJ/+RD56ev0kpZ+1+Evay22HKbIKRPIhY1A2urBf7A4tA3zLUMTXY8nJd7lcA+fB11B60krdtTkjkQTT0Td9hwxNqhuDseAahpAdcOoGRUA0hogwGihy6B+nQMA9yJRZbFx9B/U0sVTMJMFB5q/HPoQhUQM+vg5jXCUv9KKxVo9gNUZF3KQJf9kQGRPEgH7iO2oNW8vYhIBQRdlmnZYoAztoxORpwZE45ihgG8iDcnWTor8RBd+4RNJ8FgTsRBPFMOATWH+RaAvS3ksGz24YEFoMnSOyqQdiLB6Alk8qTSVUAcRMdtQet5O03AfEvhLmoFyBAbFnsam45xIACSA8zId5KgeFyLLhzEfKlfv5ECEzyqXZ2JjURptvpsD3MgzWgFMa4OjjLCJAiAsSnWC5zFUDcREftQSt5+y1ATC5ArJnkJ6IrIAVS6fswC+JNihDX4sFdjILuVAh0LIKwi3VfxYG/nkAApcmT6Vr8i2F6TIC4Igi7mssGcCuAuImO2oNW7JGNixGaxw5MKnkQM7uaS2WumfUHiWE3FCqG0SMbIjv3cQjI56HQsz6p8uX+GIjfssv9qRC9smEKpudTmeso74ejdAB6fypzvQrkKuZo+gcXEAogH6CO2oNW7PGdgNRPEiDtcp9U+T50DJAbB4AYXIBwlGbeBkQis2oKKYYkAzKgAOKOOmoPWrHHtwGxlPUDDZOwZFHpyi73B5ce9Ae5mQKRUgl/KVqeQMZwMvS/AGL0YX1SS2BMOujVrgDihjpqD1rJ2/YDQJgH0bAbGDJADiMIu9sD7T8CxBVB9KdDYTgVCuHMo4MuhwSIeCfNFUEIEIogThWlmJJ+6MjXGFx9UhVA3EBH7UEreftnAsShAOKeOmoPWsnbPxcghykmgEpcJcW4j47ag1by9huAaAP/CIjcJzWuBsY3ADmqYggQjkpdBgg7UcYzD/IuQMoGDwDxVgBxP1GjsAaSp39oGZe7HLKhl7aSIaB2CqacTgiP6yDKJjUPphtp4K/EgbsUCY6qGMOJIBjPRcpzlOm/TwB3lwDxIpNK72NJaiIPMkQRZAiaAAKPRRBXr3YFEHfRW4AY5D6phXAUDgNVU3BkdsEUTVVMYBksHgeAGL95DOl8JASKHuKnwfLwSyNVNWaqbiSKIEYfdv/+MpgSGuQTZTIg/mymZhcgBgUQ99E7AGHjYqzFQ9ivnoQ1sxNSTA2ksHLoKHVs3UuB5noc1JcisPlFMDZPB2H3fBh0bObD65R6blEK8smDRBFHjKuVT7U7KBqxKTD1noUyIEqKcSe9BYg8ss63CMayITgbpiBmd0ITUwljUiNMaS3QxVfJfU71vjngA/Kh88mGPrgIuw8z5J5mpkcq+bbs+oBCSAn18jSYzmLyIL4EyEMCRPYgSgRxH7kAYddiRDKp+oBi8H7FsBaQSa2hKiajHfrICnnOU0dmBzQRlIIekU8JyIMQVAiRFiGsFFoCRWBDI2KrwEeUQUfbuvga2NjYXAKEdTnkPAoOrsXwb9yanaQA8iHrHYAIBIijYBConoYpowMcVTHq8FJs+eVg9X4y1u8kYu16DF6cDcDihRBsXIvF6vVY2p+MDd9MbATnYTO0EFxaI2xVzKSygVMECKWYA0CUPqnuo3cAYvAvhlQxjL3eBZhapsBV9oEv74WxpAfmvDboYiogxdZg816a7FfE0DKKMioI6U1U9bSAT6mDJa8D5rI+7DVNURQZhJoiCJtp+U1AlGkw3UFvACI0jcpzibG52oWKfgJkFvbmSRgr+2GghtcmVsGS0Qg+ugI86/3ukYXt26nQBhZAy6DJaIYppQGW+FpYs9shFfeSj5kgk0ophkwqA8RQRvuUCOJGeg8gVvbtbyA4siliRFMFE0wpwy8X2gdp0N1Ixs6X0Vj7LABrn/pD/XUcdr+JBfddsnxTIc4vD5qQYmiT62CvpEhEVYyeeRAvem8FEDfTOwDhCRBb0RN5Ahl7VgeM0VUwszOpXrnyqXThhxSsfxkBLrgcUngtdk6HwfTlY9ivpcJyOxOCJ1U4QcUQkxvgLKdqiE3/4FMEnVehAojb6b2A9B3MMJTZDjGSytxAKn2p4Y0UIaTvCJCvIqGNb4AhrQMbZ8Ng/CYR/LfJBFAGTA9z5VugsvMgeyUDcBb2Q+1TCI1XgQKI28kFCDsPwhMgcplLJtWqIg9SPy5Pwc09roaWUozWJwvqeymQvnoM6XICZr8IxIsz/tg4Fw7NpRjsfpeInVvJ4B5QFKEIIrEuhwTIXtHB6H6N94+rGMWkuoPeBwibnbBxAlx2K6yF3fJ8qWxMjDFKhT122t2TzTmWiy02BMKvgNJNMdQRVM2QWbU8roUpoY6qmUZ5Gom9Yte1mMNhDwogbqT3AMKGK+zVT4Ink8oAMRV0gY+vhjmpTp7UbpeihMGTUokPVTD++eCjKqCLUIGn31sKuyAQWHoGF0Wi/ZJh6AJK/zguRgHEjfQOQAQChJ272K+bhDmnU77zNhdGEcA3F7v3U7H7fTx038Rh7UwQVr8IhvpSNFUyrD9IMvS3UrDtnwMDu5VqfA3sFIn2FEDcWO8AhCe/YC4bJkCmYMnohDmKGjpQBatHHiSqYDiCY/t8GLZDi7H9qBRbnwfJ/UMMVx7D/EMqrPdzYPEtgimuTu4s5KQUo2dTUD1UPIj76T2AWEuH5f4gNgZIJAESUAbzAypzCRA2Tyq7kiultsKc2YWdk4HyzMv6q48h3kiB0SMHJqpiJKpiGCDMgxh8S8ArgLih3gOIxRVBTJkdEKKqIbFuAB7ZUN9IgvbaY2guRmDtlD9WPvPF5ulg6C5Ewng5HgIBovbKhi6Iqp64aljL2LgYJYK4r1yAsAlk+MZRcAwQqjhM5D+c7S9gKu2HmNYCIZ7SRXILbElN0IYWYNc7E7r76dDSwm4itEMlMOeZBTGiHDyVxdasNvAFHXC0TsNeO4HtwGKqYpQTZe6n9wBibn4KW9csrDVjEPO7oE2qhzGjRb7GYqVtdndLjWemDIgUWQ4TVTZbZGC1ESXyDMvOwh44akaw3/VCnoJqK7hEvj27oVQBxL30PkDKR+Boegohrwv6pAbskBl96Z2OFc8UvL6diK0b8dg6Gwr1mRCsX4nC9vU4+b65O/cpxfjmQPeoDLrkethqx7BHEUQTSFWMpxJB3E9vAaIPpFKUnSgj3+CsGYeU1S7PlWplS2YbjNToW4G5lFKywd1Ixc7lGPAUQbYDcrF+OwnqhxlUJheCC6L3YVd1S/qwR+/Fsau5DwuUCOJ2OmwUGwHSMIJd/wJoAwrhoIZF3Tj0mY0URdrgqBiEkNkiTy+1Q42v9y2EjqqVTVa1RFSBj66Se56xcby2hDoYqAQW6Lm2kl7slfTDQFUN9zAX+uJuOAiQIyhICiAfst4JSBHsbPB2zShB0QxtQhV2woux45dLPiMN6u+TIFDFovs8HLpTYdCcjcDWl5FQf5sA9a1k6MmbGALyIZBZtRX1yBfsFEDcVe8BxMEAqRyGKb0ZBnYK3a8A4v1sSDczwF+lcvZcBIwnQiB9HAjpVDj4i1EHI+6oDObupUHyzYNAqcdBZpUBwgZv6xggJQSI0mnZjfQWIGpKL7qgYthZhyFKK6aURpgeVcDsUwjrvVzYfiBAridAYKfW2c2EPgmAiSKI8FU0pO8S5QlmTPez6Pn5VPKqYCvoxn7pwcg6LaUkBgjzIAog7qJ3AKIPKpEHXTNAmCmVHpVDogggUAPzt9IhfJsIwwU2cCoU4mch4M9QBLkUBenyYxgp/RjZfeu886j8rYCVSmR2zxh2Ak5DEYRjgCgRxI30JwARUxugDS+F2j8P21S5rN1LwQ6lkR2KGJtnw7D2eRBW2OCpa4+hvRIvz0Ak3kuH0ScPYlQFbIUUQVRDVB0VU5mbR4D0KIC4ld4BiO4QkEoqT5PrwJEPMZKX0KfUg8/rwOajUmgoOuwEl4BLbMB2Qj2e3UmAObEJO2RQdcykslujRhMgRQyQYSp72ci6A0CUkXXupMNGsTohNB4AYggpg7NsCKiagD6tGdvZreA7ZrBa/QTqgRkYu56j614sXkSXYjenHZt5ndgs7sFWUZd8LoWvfCJ3WFZHk0llHYZKhynFEFQP8xUP4nb6L4AUyYA4yoaB6kmKHq1QZ7VhK7cN2qZx8H2z2Mhvw05GM9QUWUy5XZjxSsN8JEWTqmG8zm+CrqwLOoo22pjKgy6HDJDAMmg8C5QU43Z6ByAcAWIrH8J+7QSEzDYY0lrkqSyFrA7oCAp1VCWMsXUQQ1QQA0tgCC7Dll8+DDHVBEYd9Kn1B3d8iK+XK5i9shFKMSpoPQtdgCgpxn30FiAaMpNcSCmsZFBZp2Vjdjv4uFoYwlTgqJLZ8cgmk5qMnStxeH0uHFvnH2HrErt3fyI0N1PJg2TIHZyNoWVyh6E9Bkj5CAwECJtIV/Eg7iZXo+wTIMyk6oJLoaeF3Upsv34CJjZBP0ULEzWw6WEBxJtZ4K8mgrsUA90Xj+SzqfqzkTB8FQv+Ou2/kwbeJxeWoDKY4xtgL6MUU8EuApZB8CT4GCCcAoj76A1AuPohiiBFMiD2igF5pmUTu0AXUyM3OOvJbryZCelqAgTWxfBMGAyfh0I4+wjSVzEwsglkbqfBRNWKNagUxoQGORI5CRCDXwn4BwXQkZFVIog76RAQiwPa6j5s+eRBx061lx1cizFntEBik9iRLzF55RMABMg1AuRSFHgGyOkDQMQ3ALG4ABGTGmGuGoSDAcK6HN7JxWZWE+w6UQHE3bQn2bCaXovV7xKgv5cNc2E3pYYhOFKoQUPLYfcuguVuNoTvU6H/5vHBpHWUXoTPQmE8Gw3pyzhYriXDdjMDjod5sAWyCFIHSdUHqXwAu/7FWKM0NOOfCdsWd3BQAoLBcXTvGAWQD0xvNohlH8sFzWg/642FBymwPHkOsW0cS+F5WLmVgFffxGDtfBiWTgVg7qQ/Fv/gi/WPfKH/LAya0+HY/CIMGxcisHMpErvfROP1d4+xcj8Zm/FVcLa9gJDahv5PPVF/2Q/WbcPBMV2A2F3bCiAfklwNctguFtGE3vwKfPuLf0P21YfUak4YVtcxmFWMoahMTIakYyogBZO+iXh+7zGmLgZi5He3Mf2f9/H0lDfmrkVg7k4cnt+JxbRnAsb9kzAWmoHFjGpgxwrx+QZu/t9/R+aVh3CabAcs0OoQEPnnY6BjBwhrILbpsNlRnpiFfO9HWKzpxMv6Lkxnl2M2qwLzaSqs5NRgpaAOL8uaoCtuw6xHImr/5Wuo/uo06n97DfP+adBk1WMzuw6ruTWYySqnpQKztD1ZWIeVwUnUpuajLCwBoigeRI29fblnO0sxsg85BjpWKUYGgxa5cZz7GFE1oikkGUNhmSj7d2r8fziP+n/6GtV/f0Feqn59ERX/fAll/3IJ9f96GR3/eBktvzyHil+eRsGvTiPz708j629PIev//QGp/+djpP3lx0j9y98j+H//K0rOUqRJr8B0fSdEixk2dkz6AIeAsM9yHHSsIghrHCttMkCcRhsmKTqkn7+N9I++wfDdSMx6JWLiWggmL/hi+rQXnn72EE//8ACTJx5g+oQHXnx8H7Mf3cezP3hg7NP7GPr0LgZoGfz9HYz+/i7GTnpg8ssgLN5JQMcXXoj99Reoj06H2WIlQCh6UARhn0MeI8M+0zHQ8QGEUUELC/VyuLfvYXdkBgOROViJo5K2eQj2rnEIVd3gi1rBZzeAT6uFIbkKXHwF+JgyGGNUMD+uhJRYBSmpGpbEGgjpdRCzGuDMbIKtuBPW1lHY2iawk9WIUZ9kTGVWwmG2yYeXASHJEYxtHgNKfhZA9umrzJY/q9jhqGXYt1duLKsD22Mz2Kjvh7FxFPvDc8DYAux9z2HuGIfUMgKheRhCwwCEGjapXQ+4sk5wqi7wlb2QaJ+1bgiW5hFYWsew1z4pv9Y2vQLrxBLE1nHoq/rxqqkfNk5kn+BI8l+uAOLS4T/iQ/tn2JyQFl+DG5qBbXQR+0vbwEsN9mY3qJFfwjq+BOvIAixD87D10HO6nsHSMQ1z+xSsnU9h756Bs/cFHP1zsNLrrVMvYZlZwx57n8VtWOi14uAs+Pk17JvkmPWjf8ExYEPWfwsQO+Vei2SE3Wyhry39S1ygsFBrt9vhcDjgdDrlZW9PDrx/Pjn2YdnWwbSwDufiJsBOZu3w2FvXwPlyF86lLTjnN+CYpd8/ewUHQWMnCKwTy7BNrsg/7z1bg3NmHfY5gmp5C9a1Heyx99nm5fe00+vtWzo5nR3JRYYCCP0HLIIEUc/BSpBIegNEHQeJFpEzgOd5SJIEi8UCm80mQ/Kzp5033p5BauUlWHd0cOxw2GPXS3gjHFqCRCNgb9cAx5Ye9g0tbK/UtOzCsroD88ttGQQ77XO+1sK5Qa/fpuepDbDRax2chH3eLL+ng+Bw6AS5Yjo6NNug5Wf+S/9s+m8Bsm9zwG40wyoawe1q5EXQ6iEZBFgoqjA4rFarHEkOfcnPCskbb82O47RRFDPR8SUznBaClC1mK/aYqaT9e0YL9iQLHKLpYBHYYoSTns/2s9/vs4U9l17npIi5Z7XLy8FzzNi30M8sQh4enD38jH/in1v/PQ9y+M94I728S29C8bMC8i79xOc6+t2by6Hete9tsd/R306x8WDoJdOfeo1bCfj/JAMkC/B/Z/IAAAAASUVORK5CYII=;" vertex="1" parent="WIyWlLk6GJQsqaUBKTNV-1">
          <mxGeometry x="1385" y="270" width="150" height="150" as="geometry" />
        </mxCell>
        <mxCell id="XkVE1XgF-gH7ZRC7bXYD-26" value="" style="whiteSpace=wrap;html=1;fillColor=#f8cecc;strokeColor=#b85450;strokeWidth=2;" vertex="1" parent="WIyWlLk6GJQsqaUBKTNV-1">
          <mxGeometry x="1437" y="474" width="80" height="25" as="geometry" />
        </mxCell>
        <mxCell id="XkVE1XgF-gH7ZRC7bXYD-14" value="&lt;font style=&quot;font-size: 18px;&quot;&gt;&lt;font style=&quot;&quot; face=&quot;Times New Roman&quot;&gt;ID：&lt;/font&gt;&lt;span style=&quot;font-family: &amp;quot;Times New Roman&amp;quot;; vertical-align: baseline;&quot;&gt;6040652705&lt;/span&gt;&lt;/font&gt;" style="text;strokeColor=none;align=center;fillColor=none;html=1;verticalAlign=middle;whiteSpace=wrap;rounded=0;container=0;" vertex="1" parent="WIyWlLk6GJQsqaUBKTNV-1">
          <mxGeometry x="1325" y="450" width="140" height="20" as="geometry" />
        </mxCell>
        <mxCell id="XkVE1XgF-gH7ZRC7bXYD-15" value="&lt;p style=&quot;language:zh-CN;margin-top:0pt;margin-bottom:0pt;margin-left:0in;&lt;br/&gt;text-align:left;direction:ltr;unicode-bidi:embed;mso-line-break-override:none;&lt;br/&gt;word-break:normal;punctuation-wrap:hanging&quot;&gt;&lt;font style=&quot;font-size: 18px;&quot;&gt;&lt;span style=&quot;font-family: 宋体; vertical-align: baseline;&quot;&gt;种类：&lt;/span&gt;&lt;/font&gt;&lt;span style=&quot;background-color: transparent; font-size: 18px;&quot;&gt;&lt;font face=&quot;Times New Roman&quot;&gt;Beauty, Skin Care, Face, Creams &amp;amp; Moisturizers&lt;/font&gt;&lt;/span&gt;&lt;/p&gt;" style="text;strokeColor=none;align=left;fillColor=none;html=1;verticalAlign=middle;whiteSpace=wrap;rounded=0;container=0;" vertex="1" parent="WIyWlLk6GJQsqaUBKTNV-1">
          <mxGeometry x="1325" y="472" width="280" height="50" as="geometry" />
        </mxCell>
        <mxCell id="XkVE1XgF-gH7ZRC7bXYD-16" value="&lt;p style=&quot;language:zh-CN;margin-top:0pt;margin-bottom:0pt;margin-left:0in;&lt;br/&gt;text-align:left;direction:ltr;unicode-bidi:embed;mso-line-break-override:none;&lt;br/&gt;word-break:normal;punctuation-wrap:hanging&quot;&gt;&lt;font style=&quot;font-size: 18px;&quot;&gt;&lt;span style=&quot;font-family: 宋体; vertical-align: baseline;&quot;&gt;标题：&lt;/span&gt;&lt;/font&gt;&lt;span style=&quot;background-color: transparent; font-size: 18px;&quot;&gt;&lt;font face=&quot;Times New Roman&quot;&gt;SKIN79 The Prestige Beblesh Balm BB Cream Diamond Collection&lt;/font&gt;&lt;/span&gt;&lt;/p&gt;" style="text;strokeColor=none;align=left;fillColor=none;html=1;verticalAlign=middle;whiteSpace=wrap;rounded=0;container=0;" vertex="1" parent="WIyWlLk6GJQsqaUBKTNV-1">
          <mxGeometry x="1325" y="522" width="280" height="45" as="geometry" />
        </mxCell>
        <mxCell id="XkVE1XgF-gH7ZRC7bXYD-33" value="" style="shape=image;verticalLabelPosition=bottom;labelBackgroundColor=default;verticalAlign=top;aspect=fixed;imageAspect=0;image=data:image/png,iVBORw0KGgoAAAANSUhEUgAAAMgAAADICAYAAACtWK6eAAAAAXNSR0IArs4c6QAADt5JREFUeF7tnX9e3DgSxUswx9iw5CSBkyScpM1JAiehc5LpJTlGBg8ybtZ0um2V9Eo/3K//2f1MpJL1VF+XJMqSE/6KK/Cp6785kS8icuMfphfZicjjpch21zn///krpIAr1C6bFZH/dP2NE9m4EYxDUXqR7aXIHSEp5y4EpJD2111//SLyd0jzFyKfCUmIUvgyBASvaZDFT13/dCpyHIskPzt3G2SYhaAKEBConGHGNNFjb/FF5PZX57ZhLbAUSgECglJSYefqvt+8rsQ7RRW/cL/72bkHTR2WTVeAgKRrqLYQA4iIPDx37k7dGCskKUBAkuSLq3zV9d9F5JuyNgFRCoYoTkAQKiptEBClYAWLE5AC4hOQAqJHNklAIoVLqUZAUtTLW5eA5NV7aI2AFBA9skkCEilcSjUCkqJe3rqrAWRI+HPyX+nlOq+EUa35pETtc/qkxfr/UOhk99LLj79EdmtIj2kakKVkvyjXZSWYAj7Zshe5bzkDoElAfKrGPyLfQ3OZYCNOQ1EKtJyV3BwgPmpciDxFjRQrlVRg9yJy11o0aQoQwlHSvzFtt5Z02QwgMRmwmCGlFbQCLX3f0gwgV13vPy7S7vygx5b2MArsLkRuW9jlagKQyOxXzFDSio0CTrrnjbu3MY6z2gYgXd/jukxLlSjQRBSpHhCuPSpxZ4PHaGHBXj0gnF4ZeGY9Jqv/xqV6QDSHG9Qz7nySEAX8HxBrP4yiekC4exXias2W2T137nPNT98CIOoFun8zubfTCfnLpEAvch2T+vPcuap9sOqH82N7FbGDxRNAMlExaWY8PtV/a6/6ERCVXH8WJiCJAmaqTkAyCX3YDAEpJLyyWQKiFAxVnICglLS1Q0Bs9T1pnYAUEl7ZLAFRCoYqTkBQStraISC2+jKCFNIX1SwBQSmptMMIohSsUHECUkh4AlJIeGWzBEQpGKo4AUEpaWuHgNjqyzVIIX1RzRIQlJJKO4wgSsEKFScghYQnIIWEVzZLQJSCoYoTEJSStnYIiK2+XIMU0hfVLAFBKam0wwiiFKxQcQJSSHgCUkh4ZbMERCkYqjgBQSlpa4eA2OrLNUghfVHNEpBEJf3B0/5SFW9Gc+QkI0ii8Jmq5wLEn5P2W+Q61wU9pt+kj6Jtjpyp+3Ahch8CCgHJ5OGJzVgDcuL4p52/oOdn5x4SH/9kdRNAAi+4CTp6koBYDT3WrhUg45UX/jCIkweXW17QYwKI4jTERUgICNaRraxZAKI6dtboMGw4IOpLbhY6RkCsXBpr1wIQxYt26IzFWb9wQGKuOJ67UIWAYB3ZypoJIPoz0eBn/cIBiTlLl4BYuW0+u2hAVNOrsZsWZ/3CAUG/8dH28rnMebWEBgRtL3Y0CEiscqz3QQG0Q6PtxQ4XAYlVjvUISIwPoKdEaHsxfWKdZQXQb3y0veUeHC/BCBKrHOsxgsT4APqNj7YX0yfWWVYA/cZH21vuASNIrEasF6AA2qHR9gK6cLTIhynWuPfskwtvfO6L31f2tXxC2K/ODf9/6Yd+46PtLT2///cxG+DrqIP/Tz4PyCfG7ZyT7UUvjyGJliFt5SzjnU5Evrq3/kD7hHZotL1DnQ/GePD1Y2P7DkjAAwVl4KIdGm1vziEDkyzfTDjpWgElNGUjJekvwH+OSn/qhim0vWnjS3/Mnt5QNgCiEXDpVlK0Q6PtnQJEnUP2Flm3lyJ3tUYTFfATYWJymtAOjba3794SHO8yjDmCTv0n/czJhTkAiYFj4k+LGck5p1GaN+Xcc82l/xyrh3ZotD1NINj3z2vgQqPHVJS5ixfRDo22dzi46hfEMe8wSrVOASsmafSgPRX4aIdG2xsA0SY/OulccMiZqJczuVDdqbepz13oV2YxL4hjjqt946Y4/1JdCPTjOut54+6X2vP/jnZotL0YTYaFe4wDzs1RY+zNOTTa3nSwY0SbcRZ4qnWIYx4rA4ge72ZDwUc7NNpe7DQ6CpCcDm0JSKxopxw31JliHT+0Xoxmp2yHRmO0Q9di76wBQU2vpou60jta4Kg4bGeHTLNqcWj0tvF5A9L1/jAA/8czyC9mexTS8MQIOiq+/kExaOpIQCaDsJYpFnKu7uUhIOJfOKof+o2PtscIwggy79CcYvW9CvmFbdSYBWLOiDTta+y04IReu+fOfdZqaVH+quv/njtHStNmaFSM1RL9xkfbO+sI4h0F5UwWBwZoHHlaFjl1nPujMOJlg3ZotD0Cct9vXv+y2MU6Y007WPtngS3UA6dXvl1GkBUu0vddSo0iNUWP9z6lg6+aMhKQFQMy/u3gKXLernKk1EilqZ8CfujaY/88BGTFgPiuhRySfOicNUaO6TPGgq+Fg1OsA8/IueuE3hWbewOrvp9QzM81b32LsuOiffhKdMH+w4vIY+jXo1ykn1BzrYB8WOQ6+SL9+1/Zh89TXz/B3fYiPy5FtqVTSrQgDdHEyde+l5vJJ7fDR19OZBcLxjlMsdR75mvJ5tU6GcufVqD2NUjkzt4u6nuQNX0wRafHKFA7IL6X2un62/cg+u3A2V0b7UP4B885ZcO4A60cKtAIILrZkv+icCQruOLSDgcBOU94WgBEuas3BIIBkNAtzpCPZwgIAdEogE4NWUqNCZ0x7QPB+7lYC1ucfpfjLmT7j4Bo3GM9ZVuIIB92KWVIzf9j2/vwKKc/Dq8eosnbFue1ONn1vfwv9ACEmIUQ1yDrgKQlQI5s5/uTFX/4kzMPgwBPd1+HfxbvRYuAhIhGQEJUYplFBQjIokRvBbgGCRRqZcUISOCAEpBAoVZWjIAEDigBCRRqZcUISOCAEpBAoVZWjIAEDmjMRzo5kx8Du8FiSgXQgMQmF6IPzrDYxQpOW9mPQc7kR+W4s3igAmhAIk+IhH/daQGI9rTCrMmPgePNYkoF0ICMO6K6l63BR2xwQJQJYYtnv6LXNMpxZ/FABUwAUWaaL+VhBXblQzE4IAP5gR0L+aabgMQMa/46FoCooohB9PDtmwAygcQfDH3qO+igQ5EJSH5nj2nRCpARktlpe0iWeUyfTAHxxo98B+3/81bz/TMBiR3avPUsAfE98btaTmSz/55+/y39hci95fkAZhEENTwEBKWkrR1rQGyf/rR1AlJK+ZW1S0AKDSgjSCHhlc0SEKVgqOIEBKWkrR0CYqvvSesEpJDwymYJiFIwVHECglLS1g4BsdWXEaSQvqhmCQhKSaUdRhClYIWKE5BCwhOQQsIrmyUgSsFQxQkISklbOwTEVl+uQQrpi2qWgKCUVNphBFEKVqg4ASkkPAEpJLyyWQKiFAxVnICglLS1Q0Bs9eUapJC+qGYJCEpJpR1GEKVghYoTkELCE5BCwiubJSBKwVDFCQhKSVs7BMRWX65BCumLapaAoJRU2mEEUQpWqDgBKSR8zFGmhR6VzeoVgJ+EqH+E+RotfJOuO10PrRDtWSpAQFLV/dT1T07kJtUO69enQMjBgaWfuv4IEnhKY2kh2X6EAkanIUY8yckq1QMSeQw+UiPaMlLgQuSz5aFviMeuHhDfSS7UEUNdnY3q1x9esSYAYRSpzrmTH2ju0qRk40ADTQAyRhHtvSNAmWgKqUALi/N9f5sBhFMtpIsWtdXE1KpJQNSX8xT1AzZ+RIHdhcht7Qvz6XM3FUH2D86/jbQHX0vTquYB8R0Yc382Mxf0tOdFK31iywturCVrMoJMRfGgiMjX/cUq1oLRfrACD73Ij5+dewiuUWHB5gGZauq3g8e961PXvsGHwIn43TXtb3AeTSUn8kVE/MtA9fNvb1WFhMK9yO4vkV1La4yl7q4KkKXOWvx7rnT8taaTW4wJ0iYBSVSTgCQKWHl1ApI4QAQkUcDKqxOQxAEiIIkCVl6dgCQOEAFJFLDy6gQkcYAISKKAlVcnIIkDREASBay8OgFJHCACkihg5dUJSOIAEZBEASuvTkASB4iAJApYeXUCkjhABCRRwMqrE5DEASIgiQJWXr0oIP4DqN8i12MmbuVSHX+8mGTFmPTv2FysnMmKyAH0iY/enk9+9P9bKgEyOyDjQEdlpiIHoKStnICU7Ceybf/BlYg8Xopsc8KSDRB+4PR/dyEgSejsepH7XKBkAYSfyH50CAKSBMhQ2UeUS5E762hiCohfY/wj8p1n6xKQdCSOWjA/BMIUEEaO427BCALFxRQSM0AIx2knICBQQPz5oN3zxt2DrQ7mTAAZz6/y93rwd0SBmGM3efzqvCtZHYRtAgijx/xgPndOrTtfOvOaWp27pR6opZDAgVxSSKKP3uQp9/mjCByQK154Mz+KCfNlarsYRe7Q53DBAeH0anZxvv3ZudvFGDNTgFHEVt9D63BAOIAnB/DhuXOQQ9yuup5XQRyXOXr6emrULADpU96QK6vrE+22LyKPvzrnc4lgP7+r5UQ2PHL1o6QxGyBzg1IFIDF/F4B5Gg1VqUBs9jIBqXI4+VBoBQjIRFFGELR7tW+PgBCQ9r3YsAcEhIAYulf7pgkIAWnfiw17QEAIiKF7tW+agBCQ9r3YsAcEhIAYulf7pgkIAWnfiw17QEAIiKF7tW+agBCQ9r3YsAcEhIAYulf7pgkIAWnfiw17QEAIiKF7tW+agBCQ9r3YsAcEhIAYulf7pgkIAWnfiw17QEAIiKF7tW+agBCQ9r3YsAcEhIAYulf7pgkIAWnfiw17QEAIiKF7tW+agBCQ9r3YsAcEhIAYulf7pgkIAWnfiw17QEA+ivvQi/ww1JumG1PAiURdFd7CyYr+ZqnrxsaDj7sOBZo4vJqArMPZWuxFE4DwaP4WXWsdzwy7YmIvB/x099jF1TrGh70oqkDC7V2nnhsOiG+Il+gUdZOzbRy9QPdC2gDCewrP1kmLddwgepgBMt50+8TdrGLucnYNW0QPM0CGaRajyNk5aakOW94vYzLF2gtFSEq5zFm1C9+5mqpnCsi4YOe271n5a8bOGq07sgIymW5945oko/OsvKkXkVv0zcHHJDOPIPtGx4X75vVa5BuCsnLvte3ew4XI/a5z/opt8182QKag/Ba5ntzx7f+JuVvmQ91sA8Nd8z6Z9VJkmwuMvVr/AvQvcyFPOpLCAAAAAElFTkSuQmCC;" vertex="1" parent="WIyWlLk6GJQsqaUBKTNV-1">
          <mxGeometry x="1113" y="394" width="80" height="80" as="geometry" />
        </mxCell>
        <mxCell id="XkVE1XgF-gH7ZRC7bXYD-9" value="" style="rounded=1;whiteSpace=wrap;html=1;fillColor=#dae8fc;strokeColor=#6c8ebf;dashed=1;strokeWidth=2;" vertex="1" parent="WIyWlLk6GJQsqaUBKTNV-1">
          <mxGeometry x="35" y="440" width="290" height="160" as="geometry" />
        </mxCell>
        <mxCell id="XkVE1XgF-gH7ZRC7bXYD-10" value="&lt;font style=&quot;font-size: 18px;&quot;&gt;&lt;font style=&quot;&quot; face=&quot;Times New Roman&quot;&gt;ID：&lt;/font&gt;&lt;span style=&quot;font-family: &amp;quot;Times New Roman&amp;quot;; vertical-align: baseline;&quot;&gt;1304511146&lt;/span&gt;&lt;/font&gt;" style="text;strokeColor=none;align=center;fillColor=none;html=1;verticalAlign=middle;whiteSpace=wrap;rounded=0;" vertex="1" parent="WIyWlLk6GJQsqaUBKTNV-1">
          <mxGeometry x="45" y="450" width="140" height="20" as="geometry" />
        </mxCell>
        <mxCell id="XkVE1XgF-gH7ZRC7bXYD-11" value="&lt;p style=&quot;language:zh-CN;margin-top:0pt;margin-bottom:0pt;margin-left:0in;&lt;br/&gt;text-align:left;direction:ltr;unicode-bidi:embed;mso-line-break-override:none;&lt;br/&gt;word-break:normal;punctuation-wrap:hanging&quot;&gt;&lt;font style=&quot;font-size: 18px;&quot;&gt;&lt;span style=&quot;font-family: 宋体; vertical-align: baseline;&quot;&gt;种类：&lt;/span&gt;&lt;/font&gt;&lt;span style=&quot;background-color: transparent;&quot;&gt;&lt;font style=&quot;&quot; face=&quot;Times New Roman&quot;&gt;&lt;span style=&quot;font-size: 18px;&quot;&gt;Beauty, Makeup, Eyes, Eye Shadow&lt;/span&gt;&lt;/font&gt;&lt;/span&gt;&lt;/p&gt;" style="text;strokeColor=none;align=left;fillColor=none;html=1;verticalAlign=middle;whiteSpace=wrap;rounded=0;" vertex="1" parent="WIyWlLk6GJQsqaUBKTNV-1">
          <mxGeometry x="45" y="472" width="260" height="50" as="geometry" />
        </mxCell>
        <mxCell id="XkVE1XgF-gH7ZRC7bXYD-12" value="&lt;p style=&quot;language:zh-CN;margin-top:0pt;margin-bottom:0pt;margin-left:0in;&lt;br/&gt;text-align:left;direction:ltr;unicode-bidi:embed;mso-line-break-override:none;&lt;br/&gt;word-break:normal;punctuation-wrap:hanging&quot;&gt;&lt;font style=&quot;font-size: 18px;&quot;&gt;&lt;span style=&quot;font-family: 宋体; vertical-align: baseline;&quot;&gt;标题：&lt;/span&gt;&lt;/font&gt;&lt;span style=&quot;background-color: transparent; font-size: 18px;&quot;&gt;&lt;font face=&quot;Times New Roman&quot;&gt;Mac Magic N 7 Leopard 12 Eyeshadow Palette European Collection&lt;/font&gt;&lt;/span&gt;&lt;/p&gt;" style="text;strokeColor=none;align=left;fillColor=none;html=1;verticalAlign=middle;whiteSpace=wrap;rounded=0;" vertex="1" parent="WIyWlLk6GJQsqaUBKTNV-1">
          <mxGeometry x="45" y="525" width="280" height="65" as="geometry" />
        </mxCell>
        <mxCell id="XkVE1XgF-gH7ZRC7bXYD-5" value="" style="rounded=1;whiteSpace=wrap;html=1;fillColor=#dae8fc;strokeColor=#6c8ebf;dashed=1;strokeWidth=2;" vertex="1" parent="WIyWlLk6GJQsqaUBKTNV-1">
          <mxGeometry x="367" y="440" width="290" height="160" as="geometry" />
        </mxCell>
        <mxCell id="XkVE1XgF-gH7ZRC7bXYD-6" value="&lt;font style=&quot;font-size: 18px;&quot;&gt;&lt;font style=&quot;&quot; face=&quot;Times New Roman&quot;&gt;ID：&lt;/font&gt;&lt;span style=&quot;font-family: &amp;quot;Times New Roman&amp;quot;; vertical-align: baseline;&quot;&gt;5357955972&lt;/span&gt;&lt;/font&gt;" style="text;strokeColor=none;align=center;fillColor=none;html=1;verticalAlign=middle;whiteSpace=wrap;rounded=0;" vertex="1" parent="WIyWlLk6GJQsqaUBKTNV-1">
          <mxGeometry x="382" y="450" width="140" height="20" as="geometry" />
        </mxCell>
        <mxCell id="XkVE1XgF-gH7ZRC7bXYD-7" value="&lt;p style=&quot;language:zh-CN;margin-top:0pt;margin-bottom:0pt;margin-left:0in;&lt;br/&gt;text-align:left;direction:ltr;unicode-bidi:embed;mso-line-break-override:none;&lt;br/&gt;word-break:normal;punctuation-wrap:hanging&quot;&gt;&lt;font style=&quot;font-size: 18px;&quot;&gt;&lt;span style=&quot;font-family: 宋体; vertical-align: baseline;&quot;&gt;种类：&lt;/span&gt;&lt;/font&gt;&lt;span style=&quot;background-color: transparent; font-size: 18px;&quot;&gt;&lt;font face=&quot;Times New Roman&quot;&gt;Beauty, Hair Care, Styling Products, Creams, Gels &amp;amp; Lotions&lt;/font&gt;&lt;/span&gt;&lt;/p&gt;" style="text;strokeColor=none;align=left;fillColor=none;html=1;verticalAlign=middle;whiteSpace=wrap;rounded=0;" vertex="1" parent="WIyWlLk6GJQsqaUBKTNV-1">
          <mxGeometry x="382" y="472" width="260" height="50" as="geometry" />
        </mxCell>
        <mxCell id="XkVE1XgF-gH7ZRC7bXYD-8" value="&lt;p style=&quot;language:zh-CN;margin-top:0pt;margin-bottom:0pt;margin-left:0in;&lt;br/&gt;text-align:left;direction:ltr;unicode-bidi:embed;mso-line-break-override:none;&lt;br/&gt;word-break:normal;punctuation-wrap:hanging&quot;&gt;&lt;font style=&quot;font-size: 18px;&quot;&gt;&lt;span style=&quot;font-family: 宋体; vertical-align: baseline;&quot;&gt;标题：&lt;/span&gt;&lt;/font&gt;&lt;span style=&quot;background-color: transparent; font-size: 18px;&quot;&gt;&lt;font face=&quot;Times New Roman&quot;&gt;Kms Hair Stay Sculpt Lotion - 6 Oz&lt;/font&gt;&lt;/span&gt;&lt;/p&gt;" style="text;strokeColor=none;align=left;fillColor=none;html=1;verticalAlign=middle;whiteSpace=wrap;rounded=0;" vertex="1" parent="WIyWlLk6GJQsqaUBKTNV-1">
          <mxGeometry x="382" y="525" width="240" height="45" as="geometry" />
        </mxCell>
        <mxCell id="XkVE1XgF-gH7ZRC7bXYD-4" value="" style="rounded=1;whiteSpace=wrap;html=1;fillColor=#dae8fc;strokeColor=#6c8ebf;dashed=1;strokeWidth=2;align=center;verticalAlign=middle;fontFamily=Helvetica;fontSize=12;container=0;" vertex="1" parent="WIyWlLk6GJQsqaUBKTNV-1">
          <mxGeometry x="700" y="440" width="290" height="160" as="geometry" />
        </mxCell>
        <mxCell id="XkVE1XgF-gH7ZRC7bXYD-1" value="&lt;font style=&quot;font-size: 18px;&quot;&gt;&lt;font style=&quot;&quot; face=&quot;Times New Roman&quot;&gt;ID：&lt;/font&gt;&lt;span style=&quot;font-family: &amp;quot;Times New Roman&amp;quot;; vertical-align: baseline;&quot;&gt;0733001998&lt;/span&gt;&lt;/font&gt;" style="text;strokeColor=none;align=center;fillColor=none;html=1;verticalAlign=middle;whiteSpace=wrap;rounded=0;container=0;" vertex="1" parent="WIyWlLk6GJQsqaUBKTNV-1">
          <mxGeometry x="715" y="450" width="140" height="20" as="geometry" />
        </mxCell>
        <mxCell id="XkVE1XgF-gH7ZRC7bXYD-24" value="" style="whiteSpace=wrap;html=1;fillColor=#f8cecc;strokeColor=#b85450;strokeWidth=2;container=0;" vertex="1" parent="WIyWlLk6GJQsqaUBKTNV-1">
          <mxGeometry x="826" y="474" width="80" height="25" as="geometry" />
        </mxCell>
        <mxCell id="XkVE1XgF-gH7ZRC7bXYD-2" value="&lt;p style=&quot;language:zh-CN;margin-top:0pt;margin-bottom:0pt;margin-left:0in;&lt;br/&gt;text-align:left;direction:ltr;unicode-bidi:embed;mso-line-break-override:none;&lt;br/&gt;word-break:normal;punctuation-wrap:hanging&quot;&gt;&lt;font style=&quot;font-size: 18px;&quot;&gt;&lt;span style=&quot;font-family: 宋体; vertical-align: baseline;&quot;&gt;种类：&lt;/span&gt;&lt;span style=&quot;font-family: &amp;quot;Times New Roman&amp;quot;; vertical-align: baseline;&quot;&gt;Beauty, Skin Care, Body,&lt;br&gt;Moisturizers, Lotions&lt;/span&gt;&lt;/font&gt;&lt;/p&gt;" style="text;strokeColor=none;align=left;fillColor=none;html=1;verticalAlign=middle;whiteSpace=wrap;rounded=0;container=0;" vertex="1" parent="WIyWlLk6GJQsqaUBKTNV-1">
          <mxGeometry x="715" y="477" width="260" height="40" as="geometry" />
        </mxCell>
        <mxCell id="XkVE1XgF-gH7ZRC7bXYD-3" value="&lt;p style=&quot;language:zh-CN;margin-top:0pt;margin-bottom:0pt;margin-left:0in;&lt;br/&gt;text-align:left;direction:ltr;unicode-bidi:embed;mso-line-break-override:none;&lt;br/&gt;word-break:normal;punctuation-wrap:hanging&quot;&gt;&lt;font style=&quot;font-size: 18px;&quot;&gt;&lt;span style=&quot;font-family: 宋体; vertical-align: baseline;&quot;&gt;标题：&lt;/span&gt;&lt;/font&gt;&lt;span style=&quot;background-color: transparent; font-size: 18px;&quot;&gt;&lt;font face=&quot;Times New Roman&quot;&gt;Mastiha Body Lotion&lt;/font&gt;&lt;/span&gt;&lt;/p&gt;" style="text;strokeColor=none;align=left;fillColor=none;html=1;verticalAlign=middle;whiteSpace=wrap;rounded=0;container=0;" vertex="1" parent="WIyWlLk6GJQsqaUBKTNV-1">
          <mxGeometry x="715" y="525" width="240" height="25" as="geometry" />
        </mxCell>
        <mxCell id="XkVE1XgF-gH7ZRC7bXYD-39" value="" style="shape=crossbar;whiteSpace=wrap;html=1;rounded=1;strokeWidth=2;" vertex="1" parent="WIyWlLk6GJQsqaUBKTNV-1">
          <mxGeometry x="170" y="670" width="360" height="20" as="geometry" />
        </mxCell>
        <mxCell id="XkVE1XgF-gH7ZRC7bXYD-40" value="" style="shape=crossbar;whiteSpace=wrap;html=1;rounded=1;strokeWidth=2;" vertex="1" parent="WIyWlLk6GJQsqaUBKTNV-1">
          <mxGeometry x="530" y="670" width="320" height="20" as="geometry" />
        </mxCell>
        <mxCell id="XkVE1XgF-gH7ZRC7bXYD-43" value="" style="line;strokeWidth=2;html=1;" vertex="1" parent="WIyWlLk6GJQsqaUBKTNV-1">
          <mxGeometry x="20" y="675" width="160" height="10" as="geometry" />
        </mxCell>
        <mxCell id="XkVE1XgF-gH7ZRC7bXYD-44" value="" style="endArrow=classic;html=1;rounded=0;exitX=1;exitY=0.5;exitDx=0;exitDy=0;exitPerimeter=0;strokeWidth=2;" edge="1" parent="WIyWlLk6GJQsqaUBKTNV-1" source="XkVE1XgF-gH7ZRC7bXYD-40">
          <mxGeometry width="50" height="50" relative="1" as="geometry">
            <mxPoint x="720" y="720" as="sourcePoint" />
            <mxPoint x="1630" y="680" as="targetPoint" />
          </mxGeometry>
        </mxCell>
        <mxCell id="XkVE1XgF-gH7ZRC7bXYD-45" value="&lt;span style=&quot;font-family: &amp;quot;Times New Roman&amp;quot;; vertical-align: baseline;&quot;&gt;&lt;font style=&quot;font-size: 18px;&quot;&gt;1373932800&lt;/font&gt;&lt;/span&gt;" style="text;strokeColor=none;align=center;fillColor=none;html=1;verticalAlign=middle;whiteSpace=wrap;rounded=0;" vertex="1" parent="WIyWlLk6GJQsqaUBKTNV-1">
          <mxGeometry x="121" y="700" width="100" height="30" as="geometry" />
        </mxCell>
        <mxCell id="XkVE1XgF-gH7ZRC7bXYD-46" value="&lt;span style=&quot;font-family: &amp;quot;Times New Roman&amp;quot;; vertical-align: baseline;&quot;&gt;&lt;font style=&quot;font-size: 18px;&quot;&gt;1387497600&lt;/font&gt;&lt;/span&gt;" style="text;strokeColor=none;align=center;fillColor=none;html=1;verticalAlign=middle;whiteSpace=wrap;rounded=0;" vertex="1" parent="WIyWlLk6GJQsqaUBKTNV-1">
          <mxGeometry x="482" y="700" width="100" height="30" as="geometry" />
        </mxCell>
        <mxCell id="XkVE1XgF-gH7ZRC7bXYD-47" value="&lt;span style=&quot;font-family: &amp;quot;Times New Roman&amp;quot;; vertical-align: baseline;&quot;&gt;&lt;font style=&quot;font-size: 18px;&quot;&gt;1393977600&lt;/font&gt;&lt;/span&gt;" style="text;strokeColor=none;align=center;fillColor=none;html=1;verticalAlign=middle;whiteSpace=wrap;rounded=0;" vertex="1" parent="WIyWlLk6GJQsqaUBKTNV-1">
          <mxGeometry x="802" y="700" width="100" height="30" as="geometry" />
        </mxCell>
        <mxCell id="XkVE1XgF-gH7ZRC7bXYD-48" value="&lt;span style=&quot;font-size: 18px;&quot;&gt;&lt;font face=&quot;宋体&quot;&gt;交互时间&lt;/font&gt;&lt;/span&gt;" style="text;strokeColor=none;align=center;fillColor=none;html=1;verticalAlign=middle;whiteSpace=wrap;rounded=0;" vertex="1" parent="WIyWlLk6GJQsqaUBKTNV-1">
          <mxGeometry x="1560" y="700" width="100" height="30" as="geometry" />
        </mxCell>
        <mxCell id="XkVE1XgF-gH7ZRC7bXYD-49" value="" style="shape=image;verticalLabelPosition=bottom;labelBackgroundColor=default;verticalAlign=top;aspect=fixed;imageAspect=0;image=data:image/png,iVBORw0KGgoAAAANSUhEUgAAAMgAAADICAYAAACtWK6eAAAAAXNSR0IArs4c6QAADyNJREFUeF7tnc+LXEsVx+vm9jpLQQSTgEt15/rNoIiLrknArTBv8C3cuXOjkERB8D8QFN4EFy4ECal+CW5Mv6XgSkEEF6/fTnAvLnpS5jT3Tu7rTE9Xnfpxq059G0Immbp1q751PvfUqTpdt1P4QAEocFCBDtpAAShwWAEAAuuAArcoAEBgHlAAgMAGoABPAXgQnm64qhEFAEgjA41u8hQAIDzdcFUjCgCQRgYa3eQpAEB4uuGqRhQAII0MNLrJUwCA8HTDVY0oAEBmHuhHjx7dpyZst9v7Xdfdt9be67ruc/o/a+1msVhsnj9/vpm5mc3eHoBkGnoCYbvdnhMESqnpH9cWjJDQ3/TnU2PMpevFKMdTAIDwdHO6agLFhwMUTtd5FNpBY629XCwWz+BpPJRzLApAHIVyLbZcLk+UUh90XffE9ZqI5TaAJaKaSikAEknP5XL5eCYoDvWAYLlYrVbrSF1sshoAEjjs5DG6rvs40RQqsHVq51FWq9XT0IpavR6AMEee4ourqysCg6ZURX+stU8ACW+IAIinbgMYj9+uJFHgXctn0/f9KYJ4/+ECIB6aaa0JCvIa1X3gRXhDBkAcddNaExg1eY0v9AyAOA70XjEAckS3mmKNI125NMZc8Myk3asAyC1jP8DxutAVKi+rhQfxkuu6MAA5oNuwfEtwSPlcIDXFfygByA2azRCMX+dZWWvXk3wtal2MZeS1MebU3zxwBQDZs4EMnmO3eUfJhq673HsZv+cDNLssYJdP3/cPsMTrotT7ZQDIRJMh5viMJ+WtV0XPkXJMhES6SeBgApCJgFprijliTGnGWtd931+kfnoPYO+SJGlBgaZp1ADsngfSgWTFdwJGhgNP7nDbLKIGeBClVEQ4qgVDa/3AWvuVO3fu/M9a+w9jzH+LsNCZG9E8IBFXrKrciFsulx91XfdjpdTX92zx90qpnxtj/jmzjc56+6YBiRWU17oJp7X+jVLqo9ss0Fp7tlqtzKxWOuPNmwYkxtTKWnvqulw74zi/d+vlcvmrrut+4tKmq6urb758+fLvLmWllWkWkAj7HdXGGw8fPvzGmzdv/uZhzH80xnzfo7yYos0CEuo9avUcZLlnZ2e/sNb+zMeKt9vtl169evUfn2sklG0SkFDvUTMcZLRaa4oplp4G/G1jzJ89r6m+eJOAhHiPWgPyqaVqrcnQfXOztDFmVb3Fe3agOUACl3VFJP1prX+nlPqBj610XfetFy9e/NXnGgllWwSEcq2cE/0mg7wxxjyQMOha6x8qpX7r0Zd/G2O+7FFeTNGmAAnxHrXHHfsWq7X+l1Lqa46W/FNjzC8dy4oq1hog3O+Vi5ha7cUh31VK/cnBmj8xxvgG9A7V1lGkNUBY0ytp3mM0zbOzs+9Za3/99qSWewfMtcr0mZjoNQNIwNKuaCM5OTlZ3L1790fW2u8opb5KxmWt/UvXdX9ocVl3H65mAOHGH1K9R8ynrOS6WgKEM70SF3tINuYUfWsJEMsQUPT0iqFHc5c0AQh3eoXDDprj4b0OtwIIa3nXGNOEPsDgsAJNGADzXF1Mr0BOG2+Y0lpzAnScREgpv+9eKUenpuxeHtr3/Tr1SS2lsNmKB/EGpPX448ih3c28uaoVQLxXsFoGxHVTVULq/zFPBUAOKNRygO7xfZlqv3Z8DIzx9+IBcX0a7gkmJrXd1RDGcowlcdGbqeIBYQw42YroQb8NGsaKn+iHCQC52VqaXeLlrPhJjtcAyM2AtOxBsKAxsQnxgDBjEADiEbxIXtAQDwjzeFHR8+pDts98mIjWCoBgmfdaASxovG8M4gGhLmutMa92mDIxARG9oNEKIN6pJi1+k3C5XD7uuu6JA0vTIgDEU7DiinvsDE/b3lyyImMPhPQSrVMrHoTzfZDmVrI4U1EAUpw/8G8Qc+ogenVmX0Vm/EEnoFT5fhRXK2rCgzCXL8UP/tRImNMrJXkPhPRpAhDmXkhTOVmcFJO3ZxyLDtCbAWRY6uW8A72JaRZ3eiU9/mgKEO40qwUjYK7yKclJis18H2TsaMA0S7QXCXhwiJ9eNeVBAqZZdKlYY+B6jxY8a4uAfPj2JHPaE/H9bPq+P5V2kkdA7NHE9Ko5QAKmWSK9SID3aGYTtYll3r31fs5qFlUh6oAC5ubpKKXo9JKpvTQHSKAXETHVCgjMm9obam6KNT4ZuLvGw/VVr2oFPiCayi5oFpBQI6l5VYu5Yz4+W5qJPZrbB4mVnDfWU+OpggFB+a7b0hMTb1rabC4G2ds4pICd88700WCerFarp75rxrnLHzln17U5YveCbhOgWUCGjUPuvshU06KnHQMcQQ8C6mwLaSXwIHsKRHqy7paAS9xIDFytularxumkq1s8Vq5pD0LixHrCDvskl6VMuQL3OarxkMcMPPT3zQMygYQOdojxmXVDcUgfeRwSW01EqHpJO8ZgApBBxZC8pAMDcdn3/dNc+VsRPeF0aiX667QuAAGQiUoRpyVjrbs3MdFry1ar1dplQHzLDHEGeQx6RVq0T4tLugjSj5hPxKD9pjvR+/3W1tpnIbBQG7fb7XnXdbQ8Tatw0T8tB+X7YsKD7CmSYqpygwXvYBn+/1P621q7WSwWG5qSURvo/7bb7X0CwVp7j/7ddR15iaie4oa2Fb1sHf1pcKRCAHKDQJkgyT3WLvdrcjPwNmEAyAF1JlMZ36M4XQyxuDKYVt08JADkiKkmCNxLg2PWZenSxEAMwhiRBEvAjFYkuQRwIAaJY1gC4xIE4w6mgSmWg0hjkQES2nNIsrzq0ZSgoog33OUDIO5aXZdMvF/CaJHbJQDDTadpKQDir9n1FZHzngJacvTSdd/3F7nSXo62pqICACRwsCbLwTTtYn/5KrAZhy5HEB4oLAAJFHAanwwpIDl2u4+1mnbqnxpjKA8MnwAFAEiAeIcuHWIUAuU8Q2oINYOAIG+xLuX7KAlknaVKAJJY9gksH0Re/dplCndd9zk8RbpBBCDptH2v5iFe2SUg0i8pCXH4eYxd6O/xZ/IKO+9AnoF+IBgoqZF+DskIztjl6m8FQKofQnQgpQIAJKW6qLt6BQBI9UOIDqRUAICkVBd1V68AAKl+CNGBlAoAkJTqou7qFQAg1Q8hOpBSAQDCUHc8VIEupYMVGFXMcgkdCkE3RtKiu/wA5Aatxg09pRTtfuc6TcR91OKUHDcir09XoU1IbEB+UVwA8u583pNhZ7vErNw4SLjVcg1O6Blebrcru1SzgEzS1EvIvi3ZSnaJkEqpZy3mfDUFCKAI5jDK6ZDBrchYQROAtHbGVSb72WUTS0+vFw0IwMiCimhQRAICMLKAsX8TkaCIA6SBkxBnsX6Pm4r6HrwYQAQe7OZhk0UWzfoCoVQKiAAEXiOVeQTXW/20q2pAaj3ALdjsKqug5gPrqgUk1iuOK7O1mptb5KuyjwlaJSAFTamuD1Y4JnQBv0/9ZiqXLlY35aoOEK3160xnTdGAjzvHOxDGU0XGV6W5WERJZfZf7Ta0bZeQGflIotu6XRUkVQGSCY7dAC4Wi2ctpYVPjiQaD7tLmsZfS1xSBSAZgvGqnmo5vFKOvLUaIKkCkFSeo4YBygHDsXukfC9K6WNQPCAp4Ch9UI4Z7Fy/T+XJSx6PogFJAAfekxGBrhTvRSkVkmIB0Vp/HHFlRVR+UAQbD64iwXtRinxlQ5GAxNwELPXJFGyhhVQQOT4pbjOxOEAGwT+LMf7W2lMcQhBDydvriPz1go0x5kH6VrvdoThAIsUdmFK5jX/UUhEzHC6NMRdRG8esrChAYsFR0hOIOS7VXhZxBnBRwiERxQASKe5YG2NOq7UuIQ2P9N2cIuKRYgDRWlPcEZLeADgKAiwSJLNPtYoAJMLcFXAUBMfYlBjTrbkXWmYHJIKIRa16FGinszYpwtR51vGdHZDQwHzuJ8ys1lfJzYedd9r4ZX3m3MuaFZDQpwvgYNnbLBcFTqNn8yKzAhLiPeZ8qsxiYZXfNEKi4yzLvrMBEug9EJRXCExgvDmLF5kNkBDv0ff9g5a+7VchCwebHBiPZPciswAS6D1mXxuXZLC5+xI41cruRWYBJCSVHd4jt0nHv1+IF8m9MDMXIKxdcwTm8Y11rhoDpthZZxDZAQl5ehhjsrd3LgOSft+AaXbWaVZ2gwuYXmUP0KQb6dz943qRnNOsOQCxnIGB9+CoVvY1Acu+2Zb5swISML3KOu8s26xktY7pRbJNs3IDwjqIIadLlWV+5feGm4KSyyZyA8JavcL0qnxD57aQG6znWtHMDQgn/sD0imt9lVyntebYRZY4JBsgAfEHVq8qMXRuM5krm1nikGyAcOeamF5xza6e6wKmWcmPdcoGCPMpgelVPXbObil3uTdHoJ4TEE6AjukV2+zqupCz3JsjUM8JCCcQAyB12Tm7tcwZRvJAvWhAkLnLtrfqLmTGqMkD9SyAcIMwAFKdnbMbzFzlbBsQrGCx7a26C7kP0dQ2ksWDlPp0qM6KBDeYu5LVMiDJAzDB9lZd17iApJ6Gl+xBsAdSnZmHNZiTciICEOYKBQAJs7fqruYcYJ56szCLB+EAkmMTqDoLEt5gAOIxwADEQywhRQGIx0ACEA+xhBQFIB4DCUA8xBJSFIB4DCQA8RBLSFEA4jGQAMRDLCFFAYjHQAIQD7GEFAUgHgMJQDzEElIUgHgMJADxEEtIUQDiMZAAxEMsIUUBiMdAAhAPsYQUbRmQk67rXnuOI75u6ylY7cU530sXkazISWVO3fHajUli+zk5eyK+D0KD6fl0SP5VSokGVnufGA/S5BnfWbJ5aeB8Op86hbl2Q5Lcfg8vkuUhmg0QGlTHziP2kEzAkb7Rg3S73Z53XffklqIba+3FarVap5YqKyATT0KvQTjZ69ym7/tTvN459ZDXUf9wjsH5np0QGJer1epprl5kB2TsGD0p6Oftdns/x5Mgl6C4T1wFBo8ym43MBkhcGVEbFEijAABJoytqFaIAABEykOhGGgUASBpdUasQBQCIkIFEN9IoAEDS6IpahSgAQIQMJLqRRgEAkkZX1CpEAQAiZCDRjTQKAJA0uqJWIQoAECEDiW6kUQCApNEVtQpRAIAIGUh0I40CACSNrqhViAIARMhAohtpFAAgaXRFrUIUACBCBhLdSKMAAEmjK2oVosD/AaEOSEEf0JedAAAAAElFTkSuQmCC;" vertex="1" parent="WIyWlLk6GJQsqaUBKTNV-1">
          <mxGeometry x="-80" y="640" width="80" height="80" as="geometry" />
        </mxCell>
        <mxCell id="XkVE1XgF-gH7ZRC7bXYD-50" value="&lt;span style=&quot;font-family: &amp;quot;Times New Roman&amp;quot;; vertical-align: baseline;&quot;&gt;&lt;font style=&quot;font-size: 18px;&quot;&gt;ID：A2IGYO5UYS44RW&lt;/font&gt;&lt;/span&gt;" style="text;strokeColor=none;align=center;fillColor=none;html=1;verticalAlign=middle;whiteSpace=wrap;rounded=0;" vertex="1" parent="WIyWlLk6GJQsqaUBKTNV-1">
          <mxGeometry x="-145" y="730" width="210" height="30" as="geometry" />
        </mxCell>
        <mxCell id="XkVE1XgF-gH7ZRC7bXYD-51" value="" style="shape=flexArrow;endArrow=classic;html=1;rounded=0;fillColor=#dae8fc;strokeColor=#6c8ebf;width=32;endSize=13;strokeWidth=2;" edge="1" parent="WIyWlLk6GJQsqaUBKTNV-1">
          <mxGeometry width="50" height="50" relative="1" as="geometry">
            <mxPoint x="1022" y="439.00000000000006" as="sourcePoint" />
            <mxPoint x="1096" y="439.00000000000006" as="targetPoint" />
          </mxGeometry>
        </mxCell>
        <mxCell id="XkVE1XgF-gH7ZRC7bXYD-53" value="" style="shape=flexArrow;endArrow=classic;html=1;rounded=0;fillColor=#dae8fc;strokeColor=#6c8ebf;width=32;endSize=13;strokeWidth=2;" edge="1" parent="WIyWlLk6GJQsqaUBKTNV-1">
          <mxGeometry width="50" height="50" relative="1" as="geometry">
            <mxPoint x="1214" y="439.00000000000006" as="sourcePoint" />
            <mxPoint x="1288" y="439.00000000000006" as="targetPoint" />
          </mxGeometry>
        </mxCell>
        <mxCell id="XkVE1XgF-gH7ZRC7bXYD-58" value="&lt;font style=&quot;font-size: 18px;&quot; face=&quot;宋体&quot;&gt;你之前购买过具有&lt;/font&gt;&lt;font style=&quot;font-size: 18px; color: rgb(255, 0, 0);&quot; face=&quot;Times New Roman&quot;&gt;Skin Care&lt;/font&gt;&lt;font style=&quot;font-size: 18px;&quot; face=&quot;宋体&quot;&gt;特征的物品&lt;/font&gt;&lt;font style=&quot;font-size: 18px;&quot; face=&quot;Times New Roman&quot;&gt;0733001998&lt;/font&gt;&lt;font style=&quot;font-size: 18px;&quot; face=&quot;宋体&quot;&gt;，所以向你推荐具有相似特征的物品&lt;/font&gt;&lt;span style=&quot;font-family: &amp;quot;Times New Roman&amp;quot;; font-size: 18px;&quot;&gt;6040652705&lt;/span&gt;" style="shape=callout;whiteSpace=wrap;html=1;perimeter=calloutPerimeter;fillColor=#f8cecc;strokeColor=#b85450;strokeWidth=2;align=left;" vertex="1" parent="WIyWlLk6GJQsqaUBKTNV-1">
          <mxGeometry x="1017" y="260" width="272" height="130" as="geometry" />
        </mxCell>
      </root>
    </mxGraphModel>
  </diagram>
</mxfile>
